%TF.GenerationSoftware,tscircuit,circuit-json-to-gerber,0.0.104*%
%TF.CreationDate,2026-09-10T16:02:11.185Z*%
%TF.SameCoordinates,Original*%
%TF.FileFunction,Soldermask,Bot*%
%TF.FilePolarity,Negative*%
%FSLAX46Y46*%
%MOMM*%
G04 Gerber Fmt 4.6, Leading zero omitted, Abs format (unit mm)*
G04 Created by tscircuit (builder) date 2026-09-10T16:02:11.185Z*
G01*
%LPD*%
G75*
G04 APERTURE MACROS START*
%AMHORZPILL*
0 Horizontal pill (stadium) shape macro*
0 Parameters:*
0 $1 = Total width*
0 $2 = Total height*
0 $3 = Circle diameter (equal to height)*
0 $4 = Circle center offset
0 21 = Center Line(Exposure, Width, Height, Center X, Center Y, Rotation)*
0 1 = Circle(Exposure, Diameter, Center X, Center Y, Rotation)*
21,1,$1-$3,$2,0.0,0.0,0.0*
1,1,$3,0.0-$4,0.0*
1,1,$3,$4,0.0*%
%AMVERTPILL*
0 Vertical pill (stadium) shape macro*
0 Parameters:*
0 $1 = Total width*
0 $2 = Total height*
0 $3 = Circle diameter (equal to width)*
0 $4 = Circle center offset
0 21 = Center Line(Exposure, Width, Height, Center X, Center Y, Rotation)*
21,1,$1,$2-$3,0.0,0.0,0.0*
1,1,$3,0.0,0.0-$4*
1,1,$3,0.0,$4*%
%AMROUNDRECT*
0 Rectangle with rounded corners*
0 $1 Corner radius*
0 $2 $3 $4 $5 $6 $7 $8 $9 X,Y Position of each corner*
0 Polygon box body*
4,1,4,$2,$3,$4,$5,$6,$7,$8,$9,$2,$3,0*
0 Circles for rounded corners*
1,1,$1+$1,$2,$3*
1,1,$1+$1,$4,$5*
1,1,$1+$1,$6,$7*
1,1,$1+$1,$8,$9*
0 Rectangles between the rounded corners*
20,1,$1+$1,$2,$3,$4,$5,0*
20,1,$1+$1,$4,$5,$6,$7,0*
20,1,$1+$1,$6,$7,$8,$9,0*
20,1,$1+$1,$8,$9,$2,$3,0*%
G04 APERTURE MACROS END*
G04 aperture START LIST*
%ADD10C,0.250000*%
%ADD11C,0.150000*%
%ADD12C,0.200000*%
%ADD13C,3.200000*%
%ADD14C,1.999996*%
%ADD15C,0.100000*%
%ADD16C,0.090000*%
%ADD17C,1.799996*%
%ADD18C,1.524000*%
%ADD19C,0.120000*%
%ADD20C,0.036000*%
%ADD21C,1.899996*%
%ADD22C,0.550000*%
%ADD23C,2.299995*%
%ADD24C,0.599999*%
%ADD25VERTPILL,1.199998X1.799996X1.199998X0.299999*%
%ADD26HORZPILL,1.799996X1.199998X1.199998X0.299999*%
%ADD27VERTPILL,1.199998X1.999996X1.199998X0.399999*%
%ADD28HORZPILL,1.999996X1.199998X1.199998X0.399999*%
%ADD29C,0.072000*%
%ADD30C,0.058500*%
%ADD31C,0.067500*%
%ADD32C,0.063000*%
%ADD33C,0.054000*%
%ADD34C,0.300000*%
%TD*%
G04 aperture END LIST*
D13*
X-50000000Y025000000D03*
D13*
X-50000000Y-25000000D03*
D13*
X050000000Y025000000D03*
D13*
X050000000Y-25000000D03*
D14*
X-49000000Y002540000D03*
D14*
X-49000000Y-02540000D03*
D17*
X-37750056Y-24300104D03*
D17*
X-30249944Y-26699896D03*
D14*
X-40749040Y-10249942D03*
D14*
X-33250960Y-15750058D03*
D18*
X-26936492Y-19563366D03*
D18*
X-26936492Y-12563380D03*
D18*
X-18936508Y-19563366D03*
D18*
X-18936508Y-12563380D03*
D14*
X-12500112Y-16000000D03*
D14*
X002500112Y-16000000D03*
D21*
X017500076Y-02500100D03*
D21*
X017500076Y024500100D03*
D21*
X-33500076Y006499882D03*
D21*
X-33500076Y015499864D03*
D23*
X036000009Y008000000D03*
D23*
X044999991Y008000000D03*
D24*
X050094433Y-02899918D03*
D24*
X050094433Y002899918D03*
%ADD35C,1.199998*%
D35*
X054074130Y004325112D03*
X054074130Y004325112D02*
X053474131Y004325112D01*
X053474131Y004325112D03*
D35*
X049994306Y004325112D03*
X049994306Y004325112D02*
X049194308Y004325112D01*
X049194308Y004325112D03*
D35*
X049994306Y-04325112D03*
X049994306Y-04325112D02*
X049194308Y-04325112D01*
X049194308Y-04325112D03*
D35*
X054074130Y-04325112D03*
X054074130Y-04325112D02*
X053474131Y-04325112D01*
X053474131Y-04325112D03*
M02*