M48
; DRILL file {tscircuit} date 2026-09-10T16:27:03.501Z
; FORMAT={-:-/ absolute / metric / decimal}
; #@! TF.CreationDate,2026-09-10T16:27:03.501Z
; #@! TF.GenerationSoftware,tscircuit
; #@! TF.FileFunction,Plated,1,2,PTH
FMAT,2
METRIC
; #@! TA.AperFunction,Plated,PTH,ComponentDrill
T10C1.300023
; #@! TA.AperFunction,Plated,PTH,ComponentDrill
T11C1.199896
; #@! TA.AperFunction,Plated,PTH,ComponentDrill
T12C0.999998
; #@! TA.AperFunction,Plated,PTH,ComponentDrill
T13C1.199998
; #@! TA.AperFunction,Plated,PTH,ComponentDrill
T14C0.250000
; #@! TA.AperFunction,Plated,PTH,ComponentDrill
T15C1.500022
; #@! TA.AperFunction,Plated,PTH,ComponentDrill
T16C0.799998
; #@! TA.AperFunction,Plated,PTH,ComponentDrill
T17C0.200000
%
G90
G05
T10
X-49.0000Y2.5400
X-49.0000Y-2.5400
T11
X-37.7501Y-24.3001
X-30.2499Y-26.6999
X-40.7490Y-10.2499
X-33.2510Y-15.7501
X-12.5001Y-16.0000
X2.5001Y-16.0000
T12
X-26.9365Y-19.5634
X-26.9365Y-12.5634
X-18.9365Y-19.5634
X-18.9365Y-12.5634
T13
X17.5001Y-2.5001
X17.5001Y24.5001
X-33.5001Y6.4999
X-33.5001Y15.4999
T14
X29.4500Y7.5500
X30.5500Y7.5500
X29.4500Y8.4500
X30.5500Y8.4500
T15
X36.0000Y8.0000
X45.0000Y8.0000
T16
X54.0741Y4.3251
G85X53.474Y4.325
X49.9943Y4.3251
G85X49.194Y4.325
X49.9943Y-4.3251
G85X49.194Y-4.325
X54.0741Y-4.3251
G85X53.474Y-4.325
T17
X48.0974Y-11.0526
X31.6000Y14.9250
X31.2960Y15.8710
X45.6150Y-8.9870
X46.7220Y1.8740
X48.2900Y-7.1990
X48.2140Y-5.4000
X36.5660Y3.6740
X49.7710Y-1.2000
X49.7503Y0.1973
X49.7940Y-0.6010
X46.7120Y-7.2920
X46.7180Y-4.5200
X47.9460Y2.3500
X49.7944Y-2.3837
X45.6840Y-3.4420
X35.7990Y14.3990
X51.2330Y-5.6930
X50.7450Y-2.8780
X29.6000Y1.2000
X29.7768Y3.9238
X41.5720Y-11.7000
X43.2270Y-12.7000
X32.6000Y16.6000
X-9.1820Y-19.3390
M30