%TF.GenerationSoftware,tscircuit,circuit-json-to-gerber,0.0.104*%
%TF.CreationDate,2026-09-10T16:27:03.460Z*%
%TF.SameCoordinates,Original*%
%TF.FileFunction,Profile,NP*%
%FSLAX46Y46*%
%MOMM*%
G04 Gerber Fmt 4.6, Leading zero omitted, Abs format (unit mm)*
G04 Created by tscircuit (builder) date 2026-09-10T16:27:03.460Z*
G01*
%LPD*%
G75*
%ADD10C,0.050000*%
D10*
X-53000000Y-30000000D02*
X053000000Y-30000000D01*
X053098135Y-29997591D01*
X053196034Y-29990369D01*
X053293461Y-29978353D01*
X053390181Y-29961571D01*
X053485960Y-29940063D01*
X053580569Y-29913881D01*
X053673780Y-29883088D01*
X053765367Y-29847759D01*
X053855110Y-29807979D01*
X053942793Y-29763843D01*
X054028205Y-29715457D01*
X054111140Y-29662939D01*
X054191399Y-29606415D01*
X054268787Y-29546021D01*
X054343118Y-29481902D01*
X054414214Y-29414214D01*
X054481902Y-29343118D01*
X054546021Y-29268787D01*
X054606415Y-29191399D01*
X054662939Y-29111140D01*
X054715457Y-29028205D01*
X054763843Y-28942793D01*
X054807979Y-28855110D01*
X054847759Y-28765367D01*
X054883088Y-28673780D01*
X054913881Y-28580569D01*
X054940063Y-28485960D01*
X054961571Y-28390181D01*
X054978353Y-28293461D01*
X054990369Y-28196034D01*
X054997591Y-28098135D01*
X055000000Y-28000000D01*
X055000000Y028000000D01*
X054997591Y028098135D01*
X054990369Y028196034D01*
X054978353Y028293461D01*
X054961571Y028390181D01*
X054940063Y028485960D01*
X054913881Y028580569D01*
X054883088Y028673780D01*
X054847759Y028765367D01*
X054807979Y028855110D01*
X054763843Y028942793D01*
X054715457Y029028205D01*
X054662939Y029111140D01*
X054606415Y029191399D01*
X054546021Y029268787D01*
X054481902Y029343118D01*
X054414214Y029414214D01*
X054343118Y029481902D01*
X054268787Y029546021D01*
X054191399Y029606415D01*
X054111140Y029662939D01*
X054028205Y029715457D01*
X053942793Y029763843D01*
X053855110Y029807979D01*
X053765367Y029847759D01*
X053673780Y029883088D01*
X053580569Y029913881D01*
X053485960Y029940063D01*
X053390181Y029961571D01*
X053293461Y029978353D01*
X053196034Y029990369D01*
X053098135Y029997591D01*
X053000000Y030000000D01*
X-53000000Y030000000D01*
X-53098135Y029997591D01*
X-53196034Y029990369D01*
X-53293461Y029978353D01*
X-53390181Y029961571D01*
X-53485960Y029940063D01*
X-53580569Y029913881D01*
X-53673780Y029883088D01*
X-53765367Y029847759D01*
X-53855110Y029807979D01*
X-53942793Y029763843D01*
X-54028205Y029715457D01*
X-54111140Y029662939D01*
X-54191399Y029606415D01*
X-54268787Y029546021D01*
X-54343118Y029481902D01*
X-54414214Y029414214D01*
X-54481902Y029343118D01*
X-54546021Y029268787D01*
X-54606415Y029191399D01*
X-54662939Y029111140D01*
X-54715457Y029028205D01*
X-54763843Y028942793D01*
X-54807979Y028855110D01*
X-54847759Y028765367D01*
X-54883088Y028673780D01*
X-54913881Y028580569D01*
X-54940063Y028485960D01*
X-54961571Y028390181D01*
X-54978353Y028293461D01*
X-54990369Y028196034D01*
X-54997591Y028098135D01*
X-55000000Y028000000D01*
X-55000000Y-28000000D01*
X-54997591Y-28098135D01*
X-54990369Y-28196034D01*
X-54978353Y-28293461D01*
X-54961571Y-28390181D01*
X-54940063Y-28485960D01*
X-54913881Y-28580569D01*
X-54883088Y-28673780D01*
X-54847759Y-28765367D01*
X-54807979Y-28855110D01*
X-54763843Y-28942793D01*
X-54715457Y-29028205D01*
X-54662939Y-29111140D01*
X-54606415Y-29191399D01*
X-54546021Y-29268787D01*
X-54481902Y-29343118D01*
X-54414214Y-29414214D01*
X-54343118Y-29481902D01*
X-54268787Y-29546021D01*
X-54191399Y-29606415D01*
X-54111140Y-29662939D01*
X-54028205Y-29715457D01*
X-53942793Y-29763843D01*
X-53855110Y-29807979D01*
X-53765367Y-29847759D01*
X-53673780Y-29883088D01*
X-53580569Y-29913881D01*
X-53485960Y-29940063D01*
X-53390181Y-29961571D01*
X-53293461Y-29978353D01*
X-53196034Y-29990369D01*
X-53098135Y-29997591D01*
X-53000000Y-30000000D01*
M02*