%TF.GenerationSoftware,tscircuit,circuit-json-to-gerber,0.0.104*%
%TF.CreationDate,2026-09-10T16:27:03.460Z*%
%TF.SameCoordinates,Original*%
%TF.FileFunction,Copper,L1,Top*%
%TF.FilePolarity,Positive*%
%FSLAX46Y46*%
%MOMM*%
G04 Gerber Fmt 4.6, Leading zero omitted, Abs format (unit mm)*
G04 Created by tscircuit (builder) date 2026-09-10T16:27:03.460Z*
G01*
%LPD*%
G75*
G04 APERTURE MACROS START*
%AMHORZPILL*
0 Horizontal pill (stadium) shape macro*
0 Parameters:*
0 $1 = Total width*
0 $2 = Total height*
0 $3 = Circle diameter (equal to height)*
0 $4 = Circle center offset
0 21 = Center Line(Exposure, Width, Height, Center X, Center Y, Rotation)*
0 1 = Circle(Exposure, Diameter, Center X, Center Y, Rotation)*
21,1,$1-$3,$2,0.0,0.0,0.0*
1,1,$3,0.0-$4,0.0*
1,1,$3,$4,0.0*%
%AMVERTPILL*
0 Vertical pill (stadium) shape macro*
0 Parameters:*
0 $1 = Total width*
0 $2 = Total height*
0 $3 = Circle diameter (equal to width)*
0 $4 = Circle center offset
0 21 = Center Line(Exposure, Width, Height, Center X, Center Y, Rotation)*
21,1,$1,$2-$3,0.0,0.0,0.0*
1,1,$3,0.0,0.0-$4*
1,1,$3,0.0,$4*%
%AMROUNDRECT*
0 Rectangle with rounded corners*
0 $1 Corner radius*
0 $2 $3 $4 $5 $6 $7 $8 $9 X,Y Position of each corner*
0 Polygon box body*
4,1,4,$2,$3,$4,$5,$6,$7,$8,$9,$2,$3,0*
0 Circles for rounded corners*
1,1,$1+$1,$2,$3*
1,1,$1+$1,$4,$5*
1,1,$1+$1,$6,$7*
1,1,$1+$1,$8,$9*
0 Rectangles between the rounded corners*
20,1,$1+$1,$2,$3,$4,$5,0*
20,1,$1+$1,$4,$5,$6,$7,0*
20,1,$1+$1,$6,$7,$8,$9,0*
20,1,$1+$1,$8,$9,$2,$3,0*%
G04 APERTURE MACROS END*
G04 aperture START LIST*
%ADD10C,0.250000*%
%ADD11C,0.200000*%
%ADD12C,0.150000*%
%ADD13C,1.999996*%
%ADD14C,0.100000*%
%ADD15R,3.499993X2.999994*%
%ADD16R,2.449995X2.099996*%
%ADD17C,0.090000*%
%ADD18C,1.799996*%
%ADD19C,1.524000*%
%ADD20R,1.125000X1.750000*%
%ADD21R,0.787500X1.225000*%
%ADD22C,0.120000*%
%ADD23C,0.036000*%
%ADD24C,1.899996*%
%ADD25R,3.499993X1.699997*%
%ADD26R,2.449995X1.189998*%
%ADD27R,0.800000X0.950000*%
%ADD28R,0.560000X0.665000*%
%ADD29R,2.192401X2.047494*%
%ADD30R,1.534681X1.433246*%
%ADD31C,0.629996*%
%ADD32R,3.099994X2.199996*%
%ADD33R,2.169996X1.539997*%
%ADD34C,0.550000*%
%ADD35C,2.299995*%
%ADD36R,3.499993X1.199998*%
%ADD37R,2.449995X0.839998*%
%ADD38R,2.240991X2.047494*%
%ADD39R,1.568694X1.433246*%
%ADD40R,0.350012X0.250012*%
%ADD41R,0.245008X0.175009*%
%ADD42VERTPILL,1.199998X1.799996X1.199998X0.299999*%
%ADD43HORZPILL,1.799996X1.199998X1.199998X0.299999*%
%ADD44VERTPILL,1.199998X1.999996X1.199998X0.399999*%
%ADD45HORZPILL,1.999996X1.199998X1.199998X0.399999*%
%ADD46R,1.299997X0.299999*%
%ADD47R,0.909998X0.210000*%
%ADD48C,1.500000*%
%ADD49C,1.050000*%
%ADD50C,0.072000*%
%ADD51C,0.058500*%
%ADD52C,0.067500*%
%ADD53C,0.063000*%
%ADD54C,0.054000*%
%ADD55C,0.300000*%
%ADD56C,0.001000*%
%TD*%
G04 aperture END LIST*
D13*
X-49000000Y002540000D03*
D13*
X-49000000Y-02540000D03*
D15*
X-47000000Y-17649965D03*
D15*
X-47000000Y-08350035D03*
D18*
X-37750056Y-24300104D03*
D18*
X-30249944Y-26699896D03*
D13*
X-40749040Y-10249942D03*
D13*
X-33250960Y-15750058D03*
D19*
X-26936492Y-19563366D03*
D19*
X-26936492Y-12563380D03*
D19*
X-18936508Y-19563366D03*
D19*
X-18936508Y-12563380D03*
D13*
X-12500112Y-16000000D03*
D13*
X002500112Y-16000000D03*
D20*
X-09462500Y-21000000D03*
D20*
X-06537500Y-21000000D03*
D20*
X-03462500Y-21000000D03*
D20*
X-00537500Y-21000000D03*
D24*
X017500076Y-02500100D03*
D24*
X017500076Y024500100D03*
D24*
X-33500076Y006499882D03*
D24*
X-33500076Y015499864D03*
D25*
X028669921Y000000000D03*
D25*
X023330079Y000000000D03*
D27*
X023175000Y008000000D03*
D27*
X024825000Y008000000D03*
D29*
X027000000Y-11639324D03*
D29*
X027000000Y-16360676D03*
D31*
X028095000Y005935005D03*
X028095000Y005935005D02*
X028095000Y004700007D01*
X028095000Y004700007D03*
D31*
X029365000Y005935005D03*
X029365000Y005935005D02*
X029365000Y004700007D01*
X029365000Y004700007D03*
D31*
X030635000Y005935005D03*
X030635000Y005935005D02*
X030635000Y004700007D01*
X030635000Y004700007D03*
D31*
X031905000Y005935005D03*
X031905000Y005935005D02*
X031905000Y004700007D01*
X031905000Y004700007D03*
D31*
X028095000Y011299993D03*
X028095000Y011299993D02*
X028095000Y010064995D01*
X028095000Y010064995D03*
D31*
X029365000Y011299993D03*
X029365000Y011299993D02*
X029365000Y010064995D01*
X029365000Y010064995D03*
D31*
X030635000Y011299993D03*
X030635000Y011299993D02*
X030635000Y010064995D01*
X030635000Y010064995D03*
D31*
X031905000Y011299993D03*
X031905000Y011299993D02*
X031905000Y010064995D01*
X031905000Y010064995D03*
D32*
X030000000Y008000000D03*
D34*
X029450000Y007550000D03*
D34*
X030550000Y007550000D03*
D34*
X029450000Y008450000D03*
D34*
X030550000Y008450000D03*
D27*
X027175000Y014000000D03*
D27*
X028825000Y014000000D03*
D35*
X036000009Y008000000D03*
D35*
X044999991Y008000000D03*
D27*
X030175000Y014000000D03*
D27*
X031825000Y014000000D03*
D27*
X030175000Y017000000D03*
D27*
X031825000Y017000000D03*
D36*
X042670048Y-10000000D03*
D36*
X037329952Y-10000000D03*
D27*
X050175000Y-15000000D03*
D27*
X051825000Y-15000000D03*
D27*
X048175000Y008000000D03*
D27*
X049825000Y008000000D03*
D38*
X046000000Y-22591308D03*
D38*
X046000000Y-17408692D03*
D40*
X047500000Y-08574956D03*
D40*
X047500000Y-09025044D03*
D40*
X046500000Y-09974956D03*
D40*
X046500000Y-10425044D03*
D40*
X047500000Y-05774956D03*
D40*
X047500000Y-06225044D03*
D40*
X047500000Y-07174956D03*
D40*
X047500000Y-07625044D03*
%ADD57C,1.199998*%
D57*
X054074130Y004325112D03*
X054074130Y004325112D02*
X053474131Y004325112D01*
X053474131Y004325112D03*
D57*
X049994306Y004325112D03*
X049994306Y004325112D02*
X049194308Y004325112D01*
X049194308Y004325112D03*
D57*
X049994306Y-04325112D03*
X049994306Y-04325112D02*
X049194308Y-04325112D01*
X049194308Y-04325112D03*
D57*
X054074130Y-04325112D03*
X054074130Y-04325112D02*
X053474131Y-04325112D01*
X053474131Y-04325112D03*
D46*
X048825957Y-01750060D03*
D46*
X048825957Y-01249934D03*
D46*
X048825957Y-00750062D03*
D46*
X048825957Y-00249936D03*
D46*
X048825957Y000249936D03*
D46*
X048825957Y000750062D03*
D46*
X048825957Y001249680D03*
D46*
X048825957Y001750060D03*
D56*
G36*
X049475892Y-02899969D02*
X048175869Y-02899969D01*
X048175869Y-02899969D01*
X048175869Y-03199968D01*
X048175869Y-03199968D01*
X048176022Y-03199968D01*
X048176022Y-03199968D01*
X048176022Y-03499942D01*
X048176022Y-03499942D01*
X049476044Y-03499942D01*
X049476044Y-03499942D01*
X049476044Y-03199943D01*
X049476044Y-03199943D01*
X049475892Y-03199943D01*
X049475892Y-03199943D01*
X049475892Y-02899969D01*
X049475892Y-02899969D01*
G37*
D56*
G36*
X048175869Y002899994D02*
X049475841Y002899994D01*
X049475841Y002899994D01*
X049475841Y003199994D01*
X049475841Y003199994D01*
X049475841Y003200019D01*
X049475841Y003200019D01*
X049475841Y003500018D01*
X049475841Y003500018D01*
X048175869Y003500018D01*
X048175869Y003500018D01*
X048175869Y003200019D01*
X048175869Y003200019D01*
X048175869Y003199994D01*
X048175869Y003199994D01*
X048175869Y002899994D01*
X048175869Y002899994D01*
G37*
D56*
G36*
X049475841Y002700172D02*
X048175869Y002700172D01*
X048175869Y002700172D01*
X048175869Y002400173D01*
X048175869Y002400173D01*
X048175869Y002400148D01*
X048175869Y002400148D01*
X048175869Y002100148D01*
X048175869Y002100148D01*
X049475841Y002100148D01*
X049475841Y002100148D01*
X049475841Y002400148D01*
X049475841Y002400148D01*
X049475841Y002400173D01*
X049475841Y002400173D01*
X049475841Y002700172D01*
X049475841Y002700172D01*
G37*
D56*
G36*
X049475994Y-02099970D02*
X048176022Y-02099970D01*
X048176022Y-02099970D01*
X048176022Y-02399995D01*
X048176022Y-02399995D01*
X048176047Y-02399995D01*
X048176047Y-02399995D01*
X048176047Y-02699944D01*
X048176047Y-02699944D01*
X049476019Y-02699944D01*
X049476019Y-02699944D01*
X049476019Y-02399919D01*
X049476019Y-02399919D01*
X049475994Y-02399919D01*
X049475994Y-02399919D01*
X049475994Y-02099970D01*
X049475994Y-02099970D01*
G37*
D48*
X025000000Y-21000000D03*
D48*
X029000000Y-24000000D03*
D48*
X033000000Y-24000000D03*
D10*
X049594307Y004325112D02*
X049594112Y004325112D01*
D10*
X049594112Y004325112D02*
X053774131Y004325112D01*
D10*
X053774131Y-04325112D02*
X049594112Y-04325112D01*
D10*
X049594112Y-04325112D02*
X049594307Y-04325112D01*
D11*
X049594307Y004325112D02*
X050064114Y003854886D01*
D11*
X050064114Y003854886D02*
X050409680Y003866161D01*
D11*
X050409680Y003866161D02*
X052679086Y001578079D01*
D11*
X052679086Y001578079D02*
X052721799Y-01699648D01*
D11*
X052721799Y-01699648D02*
X050087347Y-04403974D01*
D11*
X050087347Y-04403974D02*
X049594307Y-04325112D01*
D10*
X050175000Y-15000000D02*
X050175000Y-13119000D01*
D10*
X050175000Y-13119000D02*
X048158765Y-11102765D01*
D10*
X048158765Y-11102765D02*
X048097446Y-11052553D01*
D10*
X031825000Y014000000D02*
X031600000Y014225000D01*
D10*
X031600000Y014225000D02*
X031600000Y014925000D01*
D10*
X031296000Y015871000D02*
X031224416Y015942584D01*
D10*
X031224416Y015942584D02*
X030175000Y016992000D01*
D10*
X030175000Y016992000D02*
X030175000Y017000000D01*
D12*
X046500000Y-10425044D02*
X046386498Y-10432702D01*
D12*
X046386498Y-10432702D02*
X045582703Y-09618514D01*
D12*
X045582703Y-09618514D02*
X045585182Y-09016818D01*
D12*
X045585182Y-09016818D02*
X045596656Y-09005344D01*
D12*
X045596656Y-09005344D02*
X045615000Y-08987000D01*
D12*
X046722000Y001874000D02*
X048702000Y001874000D01*
D12*
X048702000Y001874000D02*
X048825957Y001750060D01*
D10*
X031905000Y005317506D02*
X032943876Y004279124D01*
D10*
X032943876Y004279124D02*
X044123628Y004279124D01*
D10*
X044123628Y004279124D02*
X046652691Y001750060D01*
D10*
X046652691Y001750060D02*
X048825957Y001750060D01*
D12*
X047500000Y-09025044D02*
X047662367Y-09025044D01*
D12*
X047662367Y-09025044D02*
X048254458Y-08432953D01*
D12*
X048254458Y-08432953D02*
X048254458Y-07234542D01*
D12*
X048254458Y-07234542D02*
X048290000Y-07199000D01*
D12*
X048214000Y-05400000D02*
X048067307Y-03778384D01*
D12*
X048067307Y-03778384D02*
X047986467Y-03697544D01*
D12*
X047986467Y-03697544D02*
X047969527Y-03492107D01*
D12*
X047969527Y-03492107D02*
X047984113Y-03282250D01*
D12*
X047984113Y-03282250D02*
X047985637Y-02966133D01*
D12*
X047985637Y-02966133D02*
X047986077Y-02755113D01*
D12*
X047986077Y-02755113D02*
X047985868Y-02545125D01*
D12*
X047985868Y-02545125D02*
X047971014Y-02217020D01*
D12*
X047971014Y-02217020D02*
X047970528Y-01902049D01*
D12*
X047970528Y-01902049D02*
X047970958Y-01797048D01*
D12*
X047970958Y-01797048D02*
X047971543Y-01693092D01*
D12*
X047971543Y-01693092D02*
X047972123Y-01589199D01*
D12*
X047972123Y-01589199D02*
X047976199Y-01487396D01*
D12*
X047976199Y-01487396D02*
X047998333Y-01397029D01*
D12*
X047998333Y-01397029D02*
X048176000Y-01271000D01*
D12*
X048176000Y-01271000D02*
X048176000Y-01250000D01*
D12*
X048176000Y-01250000D02*
X048825957Y-01249934D01*
D12*
X030635000Y005317506D02*
X031352349Y004600651D01*
D12*
X031352349Y004600651D02*
X031344138Y004360040D01*
D12*
X031344138Y004360040D02*
X032045075Y003672436D01*
D12*
X032045075Y003672436D02*
X036566000Y003674000D01*
D12*
X049771000Y-01200000D02*
X049721066Y-01249934D01*
D12*
X049721066Y-01249934D02*
X049575957Y-01249934D01*
D12*
X049575957Y-01249934D02*
X048825957Y-01249934D01*
D12*
X048825957Y-00249936D02*
X048834269Y-00241731D01*
D12*
X048834269Y-00241731D02*
X049827917Y-00241731D01*
D12*
X049827917Y-00241731D02*
X050134669Y000065022D01*
D12*
X050134669Y000065022D02*
X050137871Y000291653D01*
D12*
X050137871Y000291653D02*
X049674546Y000751556D01*
D12*
X049674546Y000751556D02*
X048825957Y000750062D01*
D11*
X047500000Y-06225044D02*
X047436514Y-06161558D01*
D11*
X047436514Y-06161558D02*
X047276908Y-06161558D01*
D11*
X047276908Y-06161558D02*
X046203687Y-05088337D01*
D11*
X046203687Y-05088337D02*
X046203687Y-02243174D01*
D11*
X046203687Y-02243174D02*
X048196925Y-00249936D01*
D11*
X048196925Y-00249936D02*
X048825957Y-00249936D01*
D12*
X029365000Y005317506D02*
X029390736Y005292264D01*
D12*
X029390736Y005292264D02*
X029390516Y003829200D01*
D12*
X029390516Y003829200D02*
X032470085Y000750053D01*
D12*
X032470085Y000750053D02*
X048825957Y000750062D01*
D10*
X048825957Y000249936D02*
X048874000Y000202000D01*
D10*
X048874000Y000202000D02*
X049750305Y000197299D01*
D10*
X049794000Y-00601000D02*
X049772615Y-00622385D01*
D10*
X049772615Y-00622385D02*
X049644938Y-00750062D01*
D10*
X049644938Y-00750062D02*
X048825957Y-00750062D01*
D12*
X047500000Y-07625044D02*
X047367727Y-07585343D01*
D12*
X047367727Y-07585343D02*
X047337718Y-07585343D01*
D12*
X047337718Y-07585343D02*
X047044375Y-07292000D01*
D12*
X047044375Y-07292000D02*
X046712000Y-07292000D01*
D12*
X046718000Y-04520000D02*
X046732193Y-04505807D01*
D12*
X046732193Y-04505807D02*
X046730779Y-02306194D01*
D12*
X046730779Y-02306194D02*
X047953548Y-01064874D01*
D12*
X047953548Y-01064874D02*
X047930216Y-01063679D01*
D12*
X047930216Y-01063679D02*
X048108948Y-00870505D01*
D12*
X048108948Y-00870505D02*
X048282423Y-00750062D01*
D12*
X048282423Y-00750062D02*
X048825957Y-00750062D01*
D12*
X028095000Y005317506D02*
X028095000Y004748650D01*
D12*
X028095000Y004748650D02*
X028929489Y003914161D01*
D12*
X028929489Y003914161D02*
X032593714Y000249936D01*
D12*
X032593714Y000249936D02*
X048825957Y000249936D01*
D10*
X044999991Y008000000D02*
X045000000Y008000000D01*
D10*
X045000000Y008000000D02*
X048175000Y008000000D01*
D11*
X048825855Y002400160D02*
X048776000Y002350000D01*
D11*
X048776000Y002350000D02*
X047946000Y002350000D01*
D11*
X049794424Y-02383680D02*
X049735818Y-02325074D01*
D11*
X049735818Y-02325074D02*
X049735818Y-02305683D01*
D11*
X049735818Y-02305683D02*
X049641544Y-02399957D01*
D11*
X049641544Y-02399957D02*
X048826020Y-02399957D01*
D10*
X048175000Y008000000D02*
X047934525Y007759525D01*
D10*
X047934525Y007759525D02*
X047934525Y002659832D01*
D10*
X047934525Y002659832D02*
X048566168Y002659832D01*
D10*
X048566168Y002659832D02*
X048825855Y002400160D01*
D11*
X042670048Y-10000000D02*
X045684000Y-06986000D01*
D11*
X045684000Y-06986000D02*
X045684000Y-03442000D01*
D11*
X049794424Y-02383680D02*
X049722220Y-02311475D01*
D11*
X049722220Y-02311475D02*
X049722220Y-02281889D01*
D11*
X049722220Y-02281889D02*
X049604152Y-02399957D01*
D11*
X049604152Y-02399957D02*
X048826020Y-02399957D01*
D10*
X042670048Y-10000000D02*
X042670048Y-19261048D01*
D10*
X042670048Y-19261048D02*
X046000000Y-22591308D01*
D10*
X046000000Y-22591308D02*
X044591000Y-24000000D01*
D10*
X044591000Y-24000000D02*
X033000000Y-24000000D01*
D10*
X031905000Y010682494D02*
X042317991Y010682000D01*
D10*
X042317991Y010682000D02*
X044999991Y008000000D01*
D10*
X028095000Y010682494D02*
X027175000Y011602000D01*
D10*
X027175000Y011602000D02*
X027175000Y014000000D01*
D10*
X028825000Y014000000D02*
X030175000Y014000000D01*
D10*
X029365000Y010682494D02*
X029365000Y013460000D01*
D10*
X029365000Y013460000D02*
X028825000Y014000000D01*
D11*
X029365000Y010682494D02*
X029365000Y010682000D01*
D11*
X029365000Y010682000D02*
X029365000Y013315198D01*
D11*
X029365000Y013315198D02*
X034715198Y013315198D01*
D11*
X034715198Y013315198D02*
X035799000Y014399000D01*
D12*
X047500000Y-08574956D02*
X047677888Y-08397112D01*
D12*
X047677888Y-08397112D02*
X047677888Y-07988317D01*
D12*
X047677888Y-07988317D02*
X047826381Y-07956210D01*
D12*
X047826381Y-07956210D02*
X047905815Y-07572209D01*
D12*
X047905815Y-07572209D02*
X047830561Y-07252513D01*
D12*
X047830561Y-07252513D02*
X047582819Y-07174956D01*
D12*
X047582819Y-07174956D02*
X047500000Y-07174956D01*
D12*
X047500000Y-05774956D02*
X047601172Y-05774956D01*
D12*
X047601172Y-05774956D02*
X047782957Y-05839330D01*
D12*
X047782957Y-05839330D02*
X047885122Y-06067711D01*
D12*
X047885122Y-06067711D02*
X047908122Y-06263711D01*
D12*
X047908122Y-06263711D02*
X047852104Y-06524476D01*
D12*
X047852104Y-06524476D02*
X047770983Y-06591756D01*
D12*
X047770983Y-06591756D02*
X047770983Y-06904017D01*
D12*
X047770983Y-06904017D02*
X047500000Y-07174956D01*
D12*
X047500000Y-08574956D02*
X047392038Y-08682962D01*
D12*
X047392038Y-08682962D02*
X047322871Y-08682962D01*
D12*
X047322871Y-08682962D02*
X047202583Y-08633280D01*
D12*
X047202583Y-08633280D02*
X047077583Y-08983280D01*
D12*
X047077583Y-08983280D02*
X047010427Y-09099460D01*
D12*
X047010427Y-09099460D02*
X046500000Y-09776024D01*
D12*
X046500000Y-09776024D02*
X046500000Y-09974956D01*
D12*
X047500000Y-05774956D02*
X051150904Y-05774956D01*
D12*
X051150904Y-05774956D02*
X051220764Y-05705096D01*
D12*
X051220764Y-05705096D02*
X051220904Y-05705096D01*
D12*
X051220904Y-05705096D02*
X051233000Y-05693000D01*
D12*
X050745000Y-02878000D02*
X050584432Y-02937000D01*
D12*
X050584432Y-02937000D02*
X050626932Y-03199971D01*
D12*
X050626932Y-03199971D02*
X050427300Y-03482883D01*
D12*
X050427300Y-03482883D02*
X050411013Y-03411790D01*
D12*
X050411013Y-03411790D02*
X049037790Y-03411790D01*
D12*
X049037790Y-03411790D02*
X048825957Y-03199955D01*
D11*
X049825000Y008000000D02*
X048295868Y006470868D01*
D11*
X048295868Y006470868D02*
X048295868Y003730132D01*
D11*
X048295868Y003730132D02*
X048825855Y003200006D01*
D10*
X024825000Y008000000D02*
X030000000Y008000000D01*
D10*
X051825000Y-15000000D02*
X049416308Y-17408692D01*
D10*
X049416308Y-17408692D02*
X046000000Y-17408692D01*
D12*
X048825957Y-03199955D02*
X049059597Y-03433595D01*
D12*
X049059597Y-03433595D02*
X049834419Y-03433595D01*
D12*
X049834419Y-03433595D02*
X049981660Y-03535135D01*
D12*
X049981660Y-03535135D02*
X050785645Y-03271603D01*
D12*
X050785645Y-03271603D02*
X050632672Y-02767450D01*
D12*
X050632672Y-02767450D02*
X050632672Y-02706554D01*
D12*
X050632672Y-02706554D02*
X050638127Y003224022D01*
D12*
X050638127Y003224022D02*
X050412793Y003451210D01*
D12*
X050412793Y003451210D02*
X049070898Y003444898D01*
D12*
X049070898Y003444898D02*
X048825855Y003200006D01*
D12*
X051825000Y-15000000D02*
X051784993Y-14959993D01*
D12*
X051784993Y-14959993D02*
X051786080Y-14265788D01*
D12*
X051786080Y-14265788D02*
X047497538Y-09970491D01*
D12*
X047497538Y-09970491D02*
X046500000Y-09974956D01*
D10*
X028669921Y000000000D02*
X029600000Y000930000D01*
D10*
X029600000Y000930000D02*
X029600000Y001200000D01*
D10*
X029776798Y003923767D02*
X029895934Y004042903D01*
D10*
X029895934Y004042903D02*
X029895934Y004043152D01*
D10*
X029895934Y004043152D02*
X030000000Y004147218D01*
D10*
X030000000Y004147218D02*
X030000000Y008000000D01*
D12*
X037329952Y-10000000D02*
X039776587Y-10000000D01*
D12*
X039776587Y-10000000D02*
X041405220Y-11628633D01*
D12*
X041405220Y-11628633D02*
X041500633Y-11628633D01*
D12*
X041500633Y-11628633D02*
X041572000Y-11700000D01*
D12*
X043227000Y-12700000D02*
X044820863Y-12700000D01*
D12*
X044820863Y-12700000D02*
X047060248Y-10460615D01*
D12*
X047060248Y-10460615D02*
X047041864Y-10460615D01*
D12*
X047041864Y-10460615D02*
X046929877Y-10230521D01*
D12*
X046929877Y-10230521D02*
X046500000Y-09974956D01*
D10*
X030000000Y008000000D02*
X030000000Y004164742D01*
D10*
X030000000Y004164742D02*
X029883700Y004048442D01*
D10*
X029883700Y004048442D02*
X029883700Y004030669D01*
D10*
X029883700Y004030669D02*
X029776798Y003923767D01*
D10*
X032600000Y016600000D02*
X032225000Y016600000D01*
D10*
X032225000Y016600000D02*
X031825000Y017000000D01*
D10*
X027000000Y-11639324D02*
X028639000Y-10000000D01*
D10*
X028639000Y-10000000D02*
X037329952Y-10000000D01*
D10*
X028669921Y000000000D02*
X028669921Y-09969079D01*
D10*
X028669921Y-09969079D02*
X027000000Y-11639324D01*
D10*
X027000000Y-11639324D02*
X029000000Y-13639000D01*
D10*
X029000000Y-13639000D02*
X029000000Y-24000000D01*
D10*
X017500076Y024500100D02*
X024324900Y024500100D01*
D10*
X024324900Y024500100D02*
X031825000Y017000000D01*
D10*
X027000000Y-16360676D02*
X025000000Y-18361000D01*
D10*
X025000000Y-18361000D02*
X025000000Y-21000000D01*
D10*
X017500076Y-02500100D02*
X020000000Y000000000D01*
D10*
X020000000Y000000000D02*
X023330079Y000000000D01*
D12*
X023175000Y008000000D02*
X024749991Y009563474D01*
D12*
X024749991Y009563474D02*
X030492611Y009556886D01*
D12*
X030492611Y009556886D02*
X030492617Y010539617D01*
D12*
X030492617Y010539617D02*
X030635000Y010682494D01*
D10*
X023330079Y000000000D02*
X023175000Y000155000D01*
D10*
X023175000Y000155000D02*
X023175000Y008000000D01*
D10*
X023330079Y000000000D02*
X023330079Y-12691079D01*
D10*
X023330079Y-12691079D02*
X027000000Y-16360676D01*
D10*
X-06537500Y-21000000D02*
X-06537000Y-21000000D01*
D10*
X-06537000Y-21000000D02*
X-03462500Y-21000000D01*
D10*
X002500112Y-16000000D02*
X002500112Y-17961888D01*
D10*
X002500112Y-17961888D02*
X-00537500Y-21000000D01*
D10*
X-09182000Y-19339000D02*
X-09181956Y-19339044D01*
D10*
X-09181956Y-19339044D02*
X-09099411Y-19339044D01*
D10*
X-09099411Y-19339044D02*
X-02198456Y-19339044D01*
D10*
X-02198456Y-19339044D02*
X-00537500Y-21000000D01*
D12*
X-18936508Y-19563366D02*
X-19888546Y-18611665D01*
D12*
X-19888546Y-18611665D02*
X-19888429Y001888123D01*
D12*
X-19888429Y001888123D02*
X-33500076Y015499864D01*
D10*
X-12500112Y-16000000D02*
X-12500112Y-17961888D01*
D10*
X-12500112Y-17961888D02*
X-09462500Y-21000000D01*
D10*
X-18936508Y-12563380D02*
X-15500000Y-16000000D01*
D10*
X-15500000Y-16000000D02*
X-12500112Y-16000000D01*
D10*
X-33250960Y-15750058D02*
X-30123058Y-15750058D01*
D10*
X-30123058Y-15750058D02*
X-26936492Y-12563380D01*
D10*
X-47000000Y-08350035D02*
X-42648965Y-08350035D01*
D10*
X-42648965Y-08350035D02*
X-40749040Y-10249942D01*
D10*
X-37750056Y-24300104D02*
X-40749040Y-21300960D01*
D10*
X-40749040Y-21300960D02*
X-40749040Y-10249942D01*
D10*
X-30249944Y-26699896D02*
X-30249944Y-22876944D01*
D10*
X-30249944Y-22876944D02*
X-26936492Y-19563366D01*
D10*
X-49000000Y-02540000D02*
X-49000000Y-15650000D01*
D10*
X-49000000Y-15650000D02*
X-47000000Y-17649965D01*
D55*
X048097446Y-11052553D03*
D55*
X031600000Y014925000D03*
D55*
X031296000Y015871000D03*
D55*
X045615000Y-08987000D03*
D55*
X046722000Y001874000D03*
D55*
X048290000Y-07199000D03*
D55*
X048214000Y-05400000D03*
D55*
X036566000Y003674000D03*
D55*
X049771000Y-01200000D03*
D55*
X049750305Y000197299D03*
D55*
X049794000Y-00601000D03*
D55*
X046712000Y-07292000D03*
D55*
X046718000Y-04520000D03*
D55*
X047946000Y002350000D03*
D55*
X049794424Y-02383680D03*
D55*
X045684000Y-03442000D03*
D55*
X049794424Y-02383680D03*
D55*
X035799000Y014399000D03*
D55*
X051233000Y-05693000D03*
D55*
X050745000Y-02878000D03*
D55*
X029600000Y001200000D03*
D55*
X029776798Y003923767D03*
D55*
X041572000Y-11700000D03*
D55*
X043227000Y-12700000D03*
D55*
X029776798Y003923767D03*
D55*
X032600000Y016600000D03*
D55*
X-09182000Y-19339000D03*
M02*