%TF.GenerationSoftware,tscircuit,circuit-json-to-gerber,0.0.104*%
%TF.CreationDate,2026-09-10T16:02:11.185Z*%
%TF.SameCoordinates,Original*%
%TF.FileFunction,Soldermask,Top*%
%TF.FilePolarity,Negative*%
%FSLAX46Y46*%
%MOMM*%
G04 Gerber Fmt 4.6, Leading zero omitted, Abs format (unit mm)*
G04 Created by tscircuit (builder) date 2026-09-10T16:02:11.185Z*
G01*
%LPD*%
G75*
G04 APERTURE MACROS START*
%AMHORZPILL*
0 Horizontal pill (stadium) shape macro*
0 Parameters:*
0 $1 = Total width*
0 $2 = Total height*
0 $3 = Circle diameter (equal to height)*
0 $4 = Circle center offset
0 21 = Center Line(Exposure, Width, Height, Center X, Center Y, Rotation)*
0 1 = Circle(Exposure, Diameter, Center X, Center Y, Rotation)*
21,1,$1-$3,$2,0.0,0.0,0.0*
1,1,$3,0.0-$4,0.0*
1,1,$3,$4,0.0*%
%AMVERTPILL*
0 Vertical pill (stadium) shape macro*
0 Parameters:*
0 $1 = Total width*
0 $2 = Total height*
0 $3 = Circle diameter (equal to width)*
0 $4 = Circle center offset
0 21 = Center Line(Exposure, Width, Height, Center X, Center Y, Rotation)*
21,1,$1,$2-$3,0.0,0.0,0.0*
1,1,$3,0.0,0.0-$4*
1,1,$3,0.0,$4*%
%AMROUNDRECT*
0 Rectangle with rounded corners*
0 $1 Corner radius*
0 $2 $3 $4 $5 $6 $7 $8 $9 X,Y Position of each corner*
0 Polygon box body*
4,1,4,$2,$3,$4,$5,$6,$7,$8,$9,$2,$3,0*
0 Circles for rounded corners*
1,1,$1+$1,$2,$3*
1,1,$1+$1,$4,$5*
1,1,$1+$1,$6,$7*
1,1,$1+$1,$8,$9*
0 Rectangles between the rounded corners*
20,1,$1+$1,$2,$3,$4,$5,0*
20,1,$1+$1,$4,$5,$6,$7,0*
20,1,$1+$1,$6,$7,$8,$9,0*
20,1,$1+$1,$8,$9,$2,$3,0*%
G04 APERTURE MACROS END*
G04 aperture START LIST*
%ADD10C,0.250000*%
%ADD11C,0.200000*%
%ADD12C,0.150000*%
%ADD13C,3.200000*%
%ADD14C,1.999996*%
%ADD15C,0.100000*%
%ADD16R,3.499993X2.999994*%
%ADD17R,2.449995X2.099996*%
%ADD18C,0.090000*%
%ADD19C,1.799996*%
%ADD20C,1.524000*%
%ADD21R,1.125000X1.750000*%
%ADD22R,0.787500X1.225000*%
%ADD23C,0.120000*%
%ADD24C,0.036000*%
%ADD25C,1.899996*%
%ADD26R,3.499993X1.699997*%
%ADD27R,2.449995X1.189998*%
%ADD28R,0.800000X0.950000*%
%ADD29R,0.560000X0.665000*%
%ADD30R,2.192401X2.047494*%
%ADD31R,1.534681X1.433246*%
%ADD32C,0.629996*%
%ADD33R,3.099994X2.199996*%
%ADD34R,2.169996X1.539997*%
%ADD35C,0.550000*%
%ADD36C,2.299995*%
%ADD37R,3.499993X1.199998*%
%ADD38R,2.449995X0.839998*%
%ADD39R,2.240991X2.047494*%
%ADD40R,1.568694X1.433246*%
%ADD41R,0.350012X0.250012*%
%ADD42R,0.245008X0.175009*%
%ADD43C,0.599999*%
%ADD44VERTPILL,1.199998X1.799996X1.199998X0.299999*%
%ADD45HORZPILL,1.799996X1.199998X1.199998X0.299999*%
%ADD46VERTPILL,1.199998X1.999996X1.199998X0.399999*%
%ADD47HORZPILL,1.999996X1.199998X1.199998X0.399999*%
%ADD48R,1.299997X0.299999*%
%ADD49R,0.909998X0.210000*%
%ADD50C,1.500000*%
%ADD51C,1.050000*%
%ADD52C,0.072000*%
%ADD53C,0.058500*%
%ADD54C,0.067500*%
%ADD55C,0.063000*%
%ADD56C,0.054000*%
%ADD57C,0.300000*%
%ADD58C,0.001000*%
%TD*%
G04 aperture END LIST*
D13*
X-50000000Y025000000D03*
D13*
X-50000000Y-25000000D03*
D13*
X050000000Y025000000D03*
D13*
X050000000Y-25000000D03*
D14*
X-49000000Y002540000D03*
D14*
X-49000000Y-02540000D03*
D16*
X-47000000Y-17649965D03*
D16*
X-47000000Y-08350035D03*
D19*
X-37750056Y-24300104D03*
D19*
X-30249944Y-26699896D03*
D14*
X-40749040Y-10249942D03*
D14*
X-33250960Y-15750058D03*
D20*
X-26936492Y-19563366D03*
D20*
X-26936492Y-12563380D03*
D20*
X-18936508Y-19563366D03*
D20*
X-18936508Y-12563380D03*
D14*
X-12500112Y-16000000D03*
D14*
X002500112Y-16000000D03*
D21*
X-09462500Y-21000000D03*
D21*
X-06537500Y-21000000D03*
D21*
X-03462500Y-21000000D03*
D21*
X-00537500Y-21000000D03*
D25*
X017500076Y-02500100D03*
D25*
X017500076Y024500100D03*
D25*
X-33500076Y006499882D03*
D25*
X-33500076Y015499864D03*
D26*
X028669921Y000000000D03*
D26*
X023330079Y000000000D03*
D28*
X023175000Y008000000D03*
D28*
X024825000Y008000000D03*
D30*
X027000000Y-11639324D03*
D30*
X027000000Y-16360676D03*
D32*
X028095000Y005935005D03*
X028095000Y005935005D02*
X028095000Y004700007D01*
X028095000Y004700007D03*
D32*
X029365000Y005935005D03*
X029365000Y005935005D02*
X029365000Y004700007D01*
X029365000Y004700007D03*
D32*
X030635000Y005935005D03*
X030635000Y005935005D02*
X030635000Y004700007D01*
X030635000Y004700007D03*
D32*
X031905000Y005935005D03*
X031905000Y005935005D02*
X031905000Y004700007D01*
X031905000Y004700007D03*
D32*
X028095000Y011299993D03*
X028095000Y011299993D02*
X028095000Y010064995D01*
X028095000Y010064995D03*
D32*
X029365000Y011299993D03*
X029365000Y011299993D02*
X029365000Y010064995D01*
X029365000Y010064995D03*
D32*
X030635000Y011299993D03*
X030635000Y011299993D02*
X030635000Y010064995D01*
X030635000Y010064995D03*
D32*
X031905000Y011299993D03*
X031905000Y011299993D02*
X031905000Y010064995D01*
X031905000Y010064995D03*
D33*
X030000000Y008000000D03*
D28*
X027175000Y014000000D03*
D28*
X028825000Y014000000D03*
D36*
X036000009Y008000000D03*
D36*
X044999991Y008000000D03*
D28*
X030175000Y014000000D03*
D28*
X031825000Y014000000D03*
D28*
X030175000Y017000000D03*
D28*
X031825000Y017000000D03*
D37*
X042670048Y-10000000D03*
D37*
X037329952Y-10000000D03*
D28*
X050175000Y-15000000D03*
D28*
X051825000Y-15000000D03*
D28*
X048175000Y008000000D03*
D28*
X049825000Y008000000D03*
D39*
X046000000Y-22591308D03*
D39*
X046000000Y-17408692D03*
D41*
X047500000Y-08574956D03*
D41*
X047500000Y-09025044D03*
D41*
X046500000Y-09974956D03*
D41*
X046500000Y-10425044D03*
D41*
X047500000Y-05774956D03*
D41*
X047500000Y-06225044D03*
D41*
X047500000Y-07174956D03*
D41*
X047500000Y-07625044D03*
D43*
X050094433Y-02899918D03*
D43*
X050094433Y002899918D03*
%ADD59C,1.199998*%
D59*
X054074130Y004325112D03*
X054074130Y004325112D02*
X053474131Y004325112D01*
X053474131Y004325112D03*
D59*
X049994306Y004325112D03*
X049994306Y004325112D02*
X049194308Y004325112D01*
X049194308Y004325112D03*
D59*
X049994306Y-04325112D03*
X049994306Y-04325112D02*
X049194308Y-04325112D01*
X049194308Y-04325112D03*
D59*
X054074130Y-04325112D03*
X054074130Y-04325112D02*
X053474131Y-04325112D01*
X053474131Y-04325112D03*
D48*
X048825957Y-01750060D03*
D48*
X048825957Y-01249934D03*
D48*
X048825957Y-00750062D03*
D48*
X048825957Y-00249936D03*
D48*
X048825957Y000249936D03*
D48*
X048825957Y000750062D03*
D48*
X048825957Y001249680D03*
D48*
X048825957Y001750060D03*
D58*
G36*
X049475892Y-02899969D02*
X048175869Y-02899969D01*
X048175869Y-02899969D01*
X048175869Y-03199968D01*
X048175869Y-03199968D01*
X048176022Y-03199968D01*
X048176022Y-03199968D01*
X048176022Y-03499942D01*
X048176022Y-03499942D01*
X049476044Y-03499942D01*
X049476044Y-03499942D01*
X049476044Y-03199943D01*
X049476044Y-03199943D01*
X049475892Y-03199943D01*
X049475892Y-03199943D01*
X049475892Y-02899969D01*
X049475892Y-02899969D01*
G37*
D58*
G36*
X048175869Y002899994D02*
X049475841Y002899994D01*
X049475841Y002899994D01*
X049475841Y003199994D01*
X049475841Y003199994D01*
X049475841Y003200019D01*
X049475841Y003200019D01*
X049475841Y003500018D01*
X049475841Y003500018D01*
X048175869Y003500018D01*
X048175869Y003500018D01*
X048175869Y003200019D01*
X048175869Y003200019D01*
X048175869Y003199994D01*
X048175869Y003199994D01*
X048175869Y002899994D01*
X048175869Y002899994D01*
G37*
D58*
G36*
X049475841Y002700172D02*
X048175869Y002700172D01*
X048175869Y002700172D01*
X048175869Y002400173D01*
X048175869Y002400173D01*
X048175869Y002400148D01*
X048175869Y002400148D01*
X048175869Y002100148D01*
X048175869Y002100148D01*
X049475841Y002100148D01*
X049475841Y002100148D01*
X049475841Y002400148D01*
X049475841Y002400148D01*
X049475841Y002400173D01*
X049475841Y002400173D01*
X049475841Y002700172D01*
X049475841Y002700172D01*
G37*
D58*
G36*
X049475994Y-02099970D02*
X048176022Y-02099970D01*
X048176022Y-02099970D01*
X048176022Y-02399995D01*
X048176022Y-02399995D01*
X048176047Y-02399995D01*
X048176047Y-02399995D01*
X048176047Y-02699944D01*
X048176047Y-02699944D01*
X049476019Y-02699944D01*
X049476019Y-02699944D01*
X049476019Y-02399919D01*
X049476019Y-02399919D01*
X049475994Y-02399919D01*
X049475994Y-02399919D01*
X049475994Y-02099970D01*
X049475994Y-02099970D01*
G37*
D50*
X025000000Y-21000000D03*
D50*
X029000000Y-24000000D03*
D50*
X033000000Y-24000000D03*
M02*