%TF.GenerationSoftware,tscircuit,circuit-json-to-gerber,0.0.104*%
%TF.CreationDate,2026-09-10T16:02:11.185Z*%
%TF.SameCoordinates,Original*%
%TF.FileFunction,Legend,Top*%
%TF.FilePolarity,Positive*%
%FSLAX46Y46*%
%MOMM*%
G04 Gerber Fmt 4.6, Leading zero omitted, Abs format (unit mm)*
G04 Created by tscircuit (builder) date 2026-09-10T16:02:11.185Z*
G01*
%LPD*%
G75*
G04 APERTURE MACROS START*
%AMHORZPILL*
0 Horizontal pill (stadium) shape macro*
0 Parameters:*
0 $1 = Total width*
0 $2 = Total height*
0 $3 = Circle diameter (equal to height)*
0 $4 = Circle center offset
0 21 = Center Line(Exposure, Width, Height, Center X, Center Y, Rotation)*
0 1 = Circle(Exposure, Diameter, Center X, Center Y, Rotation)*
21,1,$1-$3,$2,0.0,0.0,0.0*
1,1,$3,0.0-$4,0.0*
1,1,$3,$4,0.0*%
%AMVERTPILL*
0 Vertical pill (stadium) shape macro*
0 Parameters:*
0 $1 = Total width*
0 $2 = Total height*
0 $3 = Circle diameter (equal to width)*
0 $4 = Circle center offset
0 21 = Center Line(Exposure, Width, Height, Center X, Center Y, Rotation)*
21,1,$1,$2-$3,0.0,0.0,0.0*
1,1,$3,0.0,0.0-$4*
1,1,$3,0.0,$4*%
%AMROUNDRECT*
0 Rectangle with rounded corners*
0 $1 Corner radius*
0 $2 $3 $4 $5 $6 $7 $8 $9 X,Y Position of each corner*
0 Polygon box body*
4,1,4,$2,$3,$4,$5,$6,$7,$8,$9,$2,$3,0*
0 Circles for rounded corners*
1,1,$1+$1,$2,$3*
1,1,$1+$1,$4,$5*
1,1,$1+$1,$6,$7*
1,1,$1+$1,$8,$9*
0 Rectangles between the rounded corners*
20,1,$1+$1,$2,$3,$4,$5,0*
20,1,$1+$1,$4,$5,$6,$7,0*
20,1,$1+$1,$6,$7,$8,$9,0*
20,1,$1+$1,$8,$9,$2,$3,0*%
G04 APERTURE MACROS END*
G04 aperture START LIST*
%ADD10C,0.250000*%
%ADD11C,0.200000*%
%ADD12C,0.150000*%
%ADD13C,1.999996*%
%ADD14C,0.100000*%
%ADD15R,3.499993X2.999994*%
%ADD16R,2.449995X2.099996*%
%ADD17C,0.090000*%
%ADD18C,1.799996*%
%ADD19C,1.524000*%
%ADD20R,1.125000X1.750000*%
%ADD21R,0.787500X1.225000*%
%ADD22C,0.120000*%
%ADD23C,0.036000*%
%ADD24C,1.899996*%
%ADD25R,3.499993X1.699997*%
%ADD26R,2.449995X1.189998*%
%ADD27R,0.800000X0.950000*%
%ADD28R,0.560000X0.665000*%
%ADD29R,2.192401X2.047494*%
%ADD30R,1.534681X1.433246*%
%ADD31C,0.629996*%
%ADD32R,3.099994X2.199996*%
%ADD33R,2.169996X1.539997*%
%ADD34C,0.550000*%
%ADD35C,2.299995*%
%ADD36R,3.499993X1.199998*%
%ADD37R,2.449995X0.839998*%
%ADD38R,2.240991X2.047494*%
%ADD39R,1.568694X1.433246*%
%ADD40R,0.350012X0.250012*%
%ADD41R,0.245008X0.175009*%
%ADD42VERTPILL,1.199998X1.799996X1.199998X0.299999*%
%ADD43HORZPILL,1.799996X1.199998X1.199998X0.299999*%
%ADD44VERTPILL,1.199998X1.999996X1.199998X0.399999*%
%ADD45HORZPILL,1.999996X1.199998X1.199998X0.399999*%
%ADD46R,1.299997X0.299999*%
%ADD47R,0.909998X0.210000*%
%ADD48C,1.500000*%
%ADD49C,1.050000*%
%ADD50C,0.072000*%
%ADD51C,0.058500*%
%ADD52C,0.067500*%
%ADD53C,0.063000*%
%ADD54C,0.054000*%
%ADD55C,0.300000*%
%TD*%
G04 aperture END LIST*
D14*
X-54637530Y005080000D02*
X-54637530Y-05053838D01*
D14*
X-45249995Y-05679999D02*
X-45500032Y-05080000D01*
D14*
X-46249993Y-05679999D02*
X-45249995Y-05679999D01*
D14*
X-45999930Y-05080000D02*
X-46249993Y-05679999D01*
D14*
X-53500016Y-05080000D02*
X-53750003Y-05679999D01*
X-52749980Y-05679999D01*
X-52999890Y-05080000D01*
D14*
X-44477530Y005080000D02*
X-44477530Y-05053838D01*
D14*
X-44477530Y005080000D02*
X-54637530Y005080000D01*
D14*
X-44480070Y-05080000D02*
X-54640070Y-05080000D01*
D14*
X-45000004Y-18150015D02*
X-45000004Y-07850036D01*
D14*
X-48999996Y-18150015D02*
X-48999996Y-07850036D01*
D14*
X-47000000Y-15286038D02*
X-46755955Y-15245755D01*
X-46526259Y-15153990D01*
X-46321637Y-15015027D01*
X-46151642Y-14835353D01*
X-46024210Y-14623358D01*
X-45945290Y-14388938D01*
X-45918568Y-14143038D01*
X-45945290Y-13897138D01*
X-46024210Y-13662718D01*
X-46151642Y-13450723D01*
X-46321637Y-13271050D01*
X-46526259Y-13132086D01*
X-46755955Y-13040321D01*
X-47000000Y-13000038D01*
D14*
X-47127000Y-10714038D02*
X-47371045Y-10754321D01*
X-47600741Y-10846086D01*
X-47805363Y-10985050D01*
X-47975358Y-11164723D01*
X-48102790Y-11376718D01*
X-48181710Y-11611138D01*
X-48208432Y-11857038D01*
X-48181710Y-12102938D01*
X-48102790Y-12337358D01*
X-47975358Y-12549353D01*
X-47805363Y-12729027D01*
X-47600741Y-12867990D01*
X-47371045Y-12959755D01*
X-47127000Y-13000038D01*
D17*
X-50166903Y-13631592D02*
X-49692321Y-13631592D01*
X-50163675Y-13628177D02*
X-50163675Y-13331152D01*
X-49931226Y-13628177D02*
X-49931226Y-13378949D01*
X-50070685Y-12845740D02*
X-50166903Y-12732900D01*
X-50166903Y-12732900D02*
X-49692324Y-12732900D01*
D14*
X-42299958Y-22800005D02*
X-25700042Y-22800005D01*
D14*
X-25700042Y-22800005D02*
X-25700042Y-28199995D01*
D14*
X-25700042Y-28199995D02*
X-42299958Y-28199995D01*
D14*
X-42299958Y-28199995D02*
X-42299958Y-22800005D01*
D17*
X-35013640Y-22093078D02*
X-35013640Y-21634189D01*
X-35013640Y-21634189D02*
X-34879089Y-21621897D01*
X-34879089Y-21621897D02*
X-34784651Y-21626007D01*
X-34784651Y-21626007D02*
X-34727682Y-21638635D01*
X-34727682Y-21638635D02*
X-34703727Y-21648930D01*
X-34703727Y-21648930D02*
X-34684012Y-21662330D01*
X-34684012Y-21662330D02*
X-34669447Y-21679172D01*
X-34669447Y-21679172D02*
X-34656604Y-21724843D01*
X-34656604Y-21724843D02*
X-34657809Y-21765345D01*
X-34657809Y-21765345D02*
X-34670954Y-21794672D01*
X-34670954Y-21794672D02*
X-34694546Y-21814763D01*
X-34694546Y-21814763D02*
X-34727093Y-21827559D01*
X-34727093Y-21827559D02*
X-34789441Y-21837317D01*
X-34789441Y-21837317D02*
X-35004721Y-21844939D01*
X-34825940Y-21864314D02*
X-34641080Y-22096479D01*
X-34326544Y-21621897D02*
X-34121968Y-22096479D01*
X-34121968Y-22096479D02*
X-33944072Y-21621897D01*
X-33499676Y-21718115D02*
X-33386836Y-21621897D01*
X-33386836Y-21621897D02*
X-33386836Y-22096476D01*
D14*
X-42499862Y-10249942D02*
X-42499862Y-15750058D01*
D14*
X-31499884Y-15750058D02*
X-31499884Y-10249942D01*
D14*
X-40810000Y-13000000D02*
X-33190000Y-13000000D01*
D14*
X-40302000Y-14524000D02*
X-37762000Y-14524000D01*
X-33952000Y-10714000D01*
D14*
X-42499862Y-10249942D02*
X-41980178Y-10249942D01*
D14*
X-39517902Y-10249942D02*
X-31499884Y-10249942D01*
D14*
X-31499884Y-15750058D02*
X-32019822Y-15750058D01*
D14*
X-34482098Y-15750058D02*
X-42499862Y-15750058D01*
D17*
X-38047414Y-08029697D02*
X-37658106Y-08029697D01*
X-37846979Y-08029697D02*
X-37846979Y-08504279D01*
X-37324600Y-08029697D02*
X-37324600Y-08504279D01*
X-37324600Y-08256961D02*
X-37000420Y-08256961D01*
X-36996816Y-08029697D02*
X-36996816Y-08504279D01*
X-36525076Y-08125915D02*
X-36412236Y-08029697D01*
X-36412236Y-08029697D02*
X-36412236Y-08504276D01*
D14*
X-23952500Y-17079373D02*
X-29921500Y-17079373D01*
D14*
X-23952500Y-16063373D02*
X-30048500Y-16063373D01*
D14*
X-23952500Y-18095373D02*
X-29921500Y-18095373D01*
D14*
X-23952500Y-15047373D02*
X-29921500Y-15047373D01*
D14*
X-23952500Y-14031373D02*
X-29921500Y-14031373D01*
D14*
X-21920500Y-18095373D02*
X-15951500Y-18095373D01*
D14*
X-21920500Y-17079373D02*
X-15951500Y-17079373D01*
D14*
X-15951500Y-16063373D02*
X-16205500Y-16063373D01*
D14*
X-21920500Y-16063373D02*
X-16205500Y-16063373D01*
D14*
X-21920500Y-15047373D02*
X-16078500Y-15047373D01*
D14*
X-21920500Y-14031373D02*
X-15951500Y-14031373D01*
D17*
X-24330788Y-08812277D02*
X-24330788Y-09286859D01*
X-24330788Y-09286859D02*
X-24014967Y-09286859D01*
X-23321206Y-08916473D02*
X-23342647Y-08864217D01*
X-23342647Y-08864217D02*
X-23381977Y-08827219D01*
X-23381977Y-08827219D02*
X-23456463Y-08803049D01*
X-23456463Y-08803049D02*
X-23511505Y-08810430D01*
X-23511505Y-08810430D02*
X-23560010Y-08835204D01*
X-23560010Y-08835204D02*
X-23607374Y-08892382D01*
X-23607374Y-08892382D02*
X-23640445Y-09042471D01*
X-23640445Y-09042471D02*
X-23614493Y-09193350D01*
X-23614493Y-09193350D02*
X-23575777Y-09254108D01*
X-23575777Y-09254108D02*
X-23535526Y-09282541D01*
X-23535526Y-09282541D02*
X-23457111Y-09295430D01*
X-23457111Y-09295430D02*
X-23388773Y-09278955D01*
X-23388773Y-09278955D02*
X-23338173Y-09230879D01*
X-23338173Y-09230879D02*
X-23321206Y-09163026D01*
X-22969755Y-09286859D02*
X-22969755Y-08812277D01*
X-22969755Y-08812277D02*
X-22788773Y-09121324D01*
X-22788773Y-09121324D02*
X-22607792Y-08812277D01*
X-22607792Y-08812277D02*
X-22607792Y-09286859D01*
X-22153142Y-08908495D02*
X-22040302Y-08812277D01*
X-22040302Y-08812277D02*
X-22040302Y-09286856D01*
D14*
X-13999982Y-13500132D02*
X003999982Y-13500132D01*
D14*
X003999982Y-13500132D02*
X003999982Y-18500122D01*
D14*
X003999982Y-18500122D02*
X-13999982Y-18500122D01*
D14*
X-13999982Y-18500122D02*
X-13999982Y-13500132D01*
D17*
X-05347114Y-12454693D02*
X-05368555Y-12402437D01*
X-05368555Y-12402437D02*
X-05407885Y-12365439D01*
X-05407885Y-12365439D02*
X-05482371Y-12341269D01*
X-05482371Y-12341269D02*
X-05537413Y-12348650D01*
X-05537413Y-12348650D02*
X-05585918Y-12373424D01*
X-05585918Y-12373424D02*
X-05633282Y-12430602D01*
X-05633282Y-12430602D02*
X-05666353Y-12580691D01*
X-05666353Y-12580691D02*
X-05640401Y-12731570D01*
X-05640401Y-12731570D02*
X-05601685Y-12792328D01*
X-05601685Y-12792328D02*
X-05561434Y-12820761D01*
X-05561434Y-12820761D02*
X-05483019Y-12833650D01*
X-05483019Y-12833650D02*
X-05414681Y-12817175D01*
X-05414681Y-12817175D02*
X-05364081Y-12769099D01*
X-05364081Y-12769099D02*
X-05347114Y-12701245D01*
X-04975326Y-12350497D02*
X-04654037Y-12350497D01*
X-04654037Y-12350497D02*
X-04678246Y-12364991D01*
X-04678246Y-12364991D02*
X-04690974Y-12374585D01*
X-04690974Y-12374585D02*
X-04720770Y-12403078D01*
X-04720770Y-12403078D02*
X-04736953Y-12422695D01*
X-04736953Y-12422695D02*
X-04753405Y-12446372D01*
X-04753405Y-12446372D02*
X-04769680Y-12474469D01*
X-04769680Y-12474469D02*
X-04785340Y-12507343D01*
X-04785340Y-12507343D02*
X-04799943Y-12545356D01*
X-04799943Y-12545356D02*
X-04813045Y-12588867D01*
X-04813045Y-12588867D02*
X-04824209Y-12638235D01*
X-04824209Y-12638235D02*
X-04836346Y-12724055D01*
X-04836346Y-12724055D02*
X-04841629Y-12825079D01*
D22*
X-08727064Y-20090000D02*
X-07272936Y-20090000D01*
D22*
X-08727064Y-21910000D02*
X-07272936Y-21910000D01*
D23*
X-08267045Y-19349351D02*
X-08267045Y-19165796D01*
X-08267045Y-19165796D02*
X-08213225Y-19160879D01*
X-08213225Y-19160879D02*
X-08175450Y-19162523D01*
X-08175450Y-19162523D02*
X-08152662Y-19167574D01*
X-08152662Y-19167574D02*
X-08143080Y-19171692D01*
X-08143080Y-19171692D02*
X-08135194Y-19177052D01*
X-08135194Y-19177052D02*
X-08129368Y-19183789D01*
X-08129368Y-19183789D02*
X-08124231Y-19202057D01*
X-08124231Y-19202057D02*
X-08124713Y-19218258D01*
X-08124713Y-19218258D02*
X-08129971Y-19229989D01*
X-08129971Y-19229989D02*
X-08139408Y-19238025D01*
X-08139408Y-19238025D02*
X-08152427Y-19243144D01*
X-08152427Y-19243144D02*
X-08177366Y-19247047D01*
X-08177366Y-19247047D02*
X-08263478Y-19250096D01*
X-08191966Y-19257846D02*
X-08118022Y-19350712D01*
X-07977150Y-19181620D02*
X-07966637Y-19173377D01*
X-07966637Y-19173377D02*
X-07949881Y-19164545D01*
X-07949881Y-19164545D02*
X-07928526Y-19157188D01*
X-07928526Y-19157188D02*
X-07902243Y-19158657D01*
X-07902243Y-19158657D02*
X-07879244Y-19166017D01*
X-07879244Y-19166017D02*
X-07862817Y-19179265D01*
X-07862817Y-19179265D02*
X-07852961Y-19195457D01*
X-07852961Y-19195457D02*
X-07856246Y-19213122D01*
X-07856246Y-19213122D02*
X-07869388Y-19226370D01*
X-07869388Y-19226370D02*
X-07892386Y-19236674D01*
X-07892386Y-19236674D02*
X-07918670Y-19242562D01*
X-07918670Y-19242562D02*
X-07941668Y-19245506D01*
X-07941668Y-19245506D02*
X-07918670Y-19248450D01*
X-07918670Y-19248450D02*
X-07892386Y-19255810D01*
X-07892386Y-19255810D02*
X-07869388Y-19267586D01*
X-07869388Y-19267586D02*
X-07854603Y-19283778D01*
X-07854603Y-19283778D02*
X-07851318Y-19301442D01*
X-07851318Y-19301442D02*
X-07857889Y-19320578D01*
X-07857889Y-19320578D02*
X-07872673Y-19336770D01*
X-07872673Y-19336770D02*
X-07895672Y-19350018D01*
X-07895672Y-19350018D02*
X-07913085Y-19354140D01*
X-07913085Y-19354140D02*
X-07941339Y-19353551D01*
X-07941339Y-19353551D02*
X-07964337Y-19350018D01*
X-07964337Y-19350018D02*
X-07980107Y-19345308D01*
D22*
X-02727064Y-20090000D02*
X-01272936Y-20090000D01*
D22*
X-02727064Y-21910000D02*
X-01272936Y-21910000D01*
D23*
X-02267045Y-19349351D02*
X-02267045Y-19165796D01*
X-02267045Y-19165796D02*
X-02213225Y-19160879D01*
X-02213225Y-19160879D02*
X-02175450Y-19162523D01*
X-02175450Y-19162523D02*
X-02152662Y-19167574D01*
X-02152662Y-19167574D02*
X-02143080Y-19171692D01*
X-02143080Y-19171692D02*
X-02135194Y-19177052D01*
X-02135194Y-19177052D02*
X-02129368Y-19183789D01*
X-02129368Y-19183789D02*
X-02124231Y-19202057D01*
X-02124231Y-19202057D02*
X-02124713Y-19218258D01*
X-02124713Y-19218258D02*
X-02129971Y-19229989D01*
X-02129971Y-19229989D02*
X-02139408Y-19238025D01*
X-02139408Y-19238025D02*
X-02152427Y-19243144D01*
X-02152427Y-19243144D02*
X-02177366Y-19247047D01*
X-02177366Y-19247047D02*
X-02263478Y-19250096D01*
X-02191966Y-19257846D02*
X-02118022Y-19350712D01*
X-01882822Y-19160879D02*
X-01986328Y-19287776D01*
X-01986328Y-19287776D02*
X-01845097Y-19287776D01*
X-01884029Y-19246887D02*
X-01884029Y-19350712D01*
D14*
X-36749981Y-05749954D02*
X020749955Y-05749928D01*
D14*
X-36749981Y027749979D02*
X-36749981Y-05749954D01*
D14*
X-36749981Y027749979D02*
X020749955Y027750005D01*
D14*
X020749955Y027750005D02*
X020749955Y-05749928D01*
D17*
X-08663481Y028947671D02*
X-08662740Y028683155D01*
X-08662740Y028683155D02*
X-08657636Y028611199D01*
X-08657636Y028611199D02*
X-08644579Y028557899D01*
X-08644579Y028557899D02*
X-08619546Y028517358D01*
X-08619546Y028517358D02*
X-08586796Y028490552D01*
X-08586796Y028490552D02*
X-08537871Y028471192D01*
X-08537871Y028471192D02*
X-08476138Y028463871D01*
X-08476138Y028463871D02*
X-08432809Y028471200D01*
X-08432809Y028471200D02*
X-08397272Y028490508D01*
X-08397272Y028490508D02*
X-08376005Y028513128D01*
X-08376005Y028513128D02*
X-08366875Y028527998D01*
X-08366875Y028527998D02*
X-08352907Y028565909D01*
X-08352907Y028565909D02*
X-08346386Y028616130D01*
X-08346386Y028616130D02*
X-08342874Y028946956D01*
X-07867546Y028851453D02*
X-07754706Y028947671D01*
X-07754706Y028947671D02*
X-07754706Y028473092D01*
D14*
X029375279Y003375660D02*
X024020959Y003375660D01*
X022623959Y001981200D01*
X022623959Y001120140D01*
D14*
X029375279Y-00780009D02*
X029375279Y-03375533D01*
D14*
X029375279Y003375660D02*
X029375279Y000780263D01*
D14*
X022623959Y-00780009D02*
X022623959Y-01981073D01*
D14*
X022623959Y001120140D02*
X022623959Y000780263D01*
D14*
X029375711Y-03375533D02*
X024018851Y-03375533D01*
X022624391Y-01981073D01*
D17*
X025675365Y004434307D02*
X025653925Y004486563D01*
X025653925Y004486563D02*
X025614594Y004523561D01*
X025614594Y004523561D02*
X025540108Y004547731D01*
X025540108Y004547731D02*
X025485066Y004540350D01*
X025485066Y004540350D02*
X025436561Y004515576D01*
X025436561Y004515576D02*
X025389197Y004458398D01*
X025389197Y004458398D02*
X025356126Y004308309D01*
X025356126Y004308309D02*
X025382078Y004157431D01*
X025382078Y004157431D02*
X025420794Y004096672D01*
X025420794Y004096672D02*
X025461045Y004068239D01*
X025461045Y004068239D02*
X025539460Y004055350D01*
X025539460Y004055350D02*
X025607798Y004071825D01*
X025607798Y004071825D02*
X025658398Y004119901D01*
X025658398Y004119901D02*
X025675365Y004187754D01*
X026151377Y004442285D02*
X026264217Y004538503D01*
X026264217Y004538503D02*
X026264217Y004063924D01*
D14*
X024825000Y008875000D02*
X022575000Y008875000D01*
X022575000Y007125000D01*
X024825000Y007125000D01*
D23*
X023871314Y009397443D02*
X023862738Y009418345D01*
X023862738Y009418345D02*
X023847006Y009433145D01*
X023847006Y009433145D02*
X023817212Y009442812D01*
X023817212Y009442812D02*
X023795195Y009439860D01*
X023795195Y009439860D02*
X023775793Y009429951D01*
X023775793Y009429951D02*
X023756847Y009407079D01*
X023756847Y009407079D02*
X023743619Y009347044D01*
X023743619Y009347044D02*
X023754000Y009286692D01*
X023754000Y009286692D02*
X023769486Y009262389D01*
X023769486Y009262389D02*
X023785586Y009251016D01*
X023785586Y009251016D02*
X023816952Y009245860D01*
X023816952Y009245860D02*
X023844288Y009252450D01*
X023844288Y009252450D02*
X023864528Y009271680D01*
X023864528Y009271680D02*
X023871314Y009298822D01*
X024030915Y009405206D02*
X024035174Y009419158D01*
X024035174Y009419158D02*
X024047760Y009432170D01*
X024047760Y009432170D02*
X024068386Y009440993D01*
X024068386Y009440993D02*
X024081625Y009442812D01*
X024081625Y009442812D02*
X024104529Y009441136D01*
X024104529Y009441136D02*
X024121711Y009433603D01*
X024121711Y009433603D02*
X024131107Y009422050D01*
X024131107Y009422050D02*
X024134482Y009408624D01*
X024134482Y009408624D02*
X024134258Y009399694D01*
X024134258Y009399694D02*
X024130225Y009384746D01*
X024130225Y009384746D02*
X024112720Y009355683D01*
X024112720Y009355683D02*
X024068638Y009300397D01*
X024068638Y009300397D02*
X024022285Y009249547D01*
X024022285Y009249547D02*
X024146289Y009249547D01*
D14*
X025113796Y-15016000D02*
X028886204Y-15016000D01*
D14*
X025113796Y-16743708D02*
X025113796Y-11256292D01*
D14*
X028886204Y-16743708D02*
X028886204Y-11256292D01*
D14*
X025113796Y-11256292D02*
X025700612Y-11256292D01*
D14*
X028886204Y-11256292D02*
X028299388Y-11256292D01*
D17*
X024358479Y-14646934D02*
X023893755Y-14641765D01*
X023893755Y-14641765D02*
X023883897Y-14572200D01*
X023883897Y-14572200D02*
X023885043Y-14518908D01*
X023885043Y-14518908D02*
X023908455Y-14432345D01*
X023908455Y-14432345D02*
X023959013Y-14368329D01*
X023959013Y-14368329D02*
X024027088Y-14331728D01*
X024027088Y-14331728D02*
X024097674Y-14317138D01*
X024097674Y-14317138D02*
X024150819Y-14315733D01*
X024150819Y-14315733D02*
X024196367Y-14322407D01*
X024196367Y-14322407D02*
X024234893Y-14336059D01*
X024234893Y-14336059D02*
X024293186Y-14379888D01*
X024293186Y-14379888D02*
X024330297Y-14438403D01*
X024330297Y-14438403D02*
X024356303Y-14534410D01*
X024356303Y-14534410D02*
X024358479Y-14646934D01*
X023980115Y-13845702D02*
X023883897Y-13732862D01*
X023883897Y-13732862D02*
X024358476Y-13732862D01*
D14*
X032576119Y009521384D02*
X032576119Y006478540D01*
X027423754Y006478540D01*
X027423754Y009521384D01*
X032576119Y009521384D01*
D14*
X032522220Y010682494D02*
X032527335Y010721346D01*
X032542331Y010757551D01*
X032566187Y010788641D01*
X032597277Y010812497D01*
X032633482Y010827493D01*
X032672334Y010832608D01*
X032711186Y010827493D01*
X032747391Y010812497D01*
X032778481Y010788641D01*
X032802337Y010757551D01*
X032817333Y010721346D01*
X032822448Y010682494D01*
X032817333Y010643642D01*
X032802337Y010607437D01*
X032778481Y010576347D01*
X032747391Y010552491D01*
X032711186Y010537495D01*
X032672334Y010532380D01*
X032633482Y010537495D01*
X032597277Y010552491D01*
X032566187Y010576347D01*
X032542331Y010607437D01*
X032527335Y010643642D01*
X032522220Y010682494D01*
D14*
X032008886Y009016000D02*
X032014001Y009054852D01*
X032028997Y009091057D01*
X032052853Y009122147D01*
X032083943Y009146003D01*
X032120148Y009160999D01*
X032159000Y009166114D01*
X032197852Y009160999D01*
X032234057Y009146003D01*
X032265147Y009122147D01*
X032289003Y009091057D01*
X032303999Y009054852D01*
X032309114Y009016000D01*
X032303999Y008977148D01*
X032289003Y008940943D01*
X032265147Y008909853D01*
X032234057Y008885997D01*
X032197852Y008871001D01*
X032159000Y008865886D01*
X032120148Y008871001D01*
X032083943Y008885997D01*
X032052853Y008909853D01*
X032028997Y008940943D01*
X032014001Y008977148D01*
X032008886Y009016000D01*
D17*
X030755937Y003537697D02*
X030755196Y003802213D01*
X030755196Y003802213D02*
X030750092Y003874169D01*
X030750092Y003874169D02*
X030737035Y003927469D01*
X030737035Y003927469D02*
X030712002Y003968010D01*
X030712002Y003968010D02*
X030679252Y003994816D01*
X030679252Y003994816D02*
X030630327Y004014176D01*
X030630327Y004014176D02*
X030568594Y004021497D01*
X030568594Y004021497D02*
X030525265Y004014168D01*
X030525265Y004014168D02*
X030489728Y003994860D01*
X030489728Y003994860D02*
X030468461Y003972240D01*
X030468461Y003972240D02*
X030459331Y003957370D01*
X030459331Y003957370D02*
X030445363Y003919459D01*
X030445363Y003919459D02*
X030438842Y003869238D01*
X030438842Y003869238D02*
X030435330Y003538412D01*
X030037014Y003622484D02*
X030026365Y003587605D01*
X030026365Y003587605D02*
X029994900Y003555076D01*
X029994900Y003555076D02*
X029943334Y003533017D01*
X029943334Y003533017D02*
X029910237Y003528469D01*
X029910237Y003528469D02*
X029852977Y003532659D01*
X029852977Y003532659D02*
X029810022Y003551494D01*
X029810022Y003551494D02*
X029786533Y003580376D01*
X029786533Y003580376D02*
X029778096Y003613939D01*
X029778096Y003613939D02*
X029778656Y003636264D01*
X029778656Y003636264D02*
X029788738Y003673634D01*
X029788738Y003673634D02*
X029832500Y003746292D01*
X029832500Y003746292D02*
X029942706Y003884507D01*
X029942706Y003884507D02*
X030058587Y004011632D01*
X030058587Y004011632D02*
X029748577Y004011632D01*
D14*
X028825000Y014875000D02*
X026575000Y014875000D01*
X026575000Y013125000D01*
X028825000Y013125000D01*
D23*
X027871314Y015397443D02*
X027862738Y015418345D01*
X027862738Y015418345D02*
X027847006Y015433145D01*
X027847006Y015433145D02*
X027817212Y015442812D01*
X027817212Y015442812D02*
X027795195Y015439860D01*
X027795195Y015439860D02*
X027775793Y015429951D01*
X027775793Y015429951D02*
X027756847Y015407079D01*
X027756847Y015407079D02*
X027743619Y015347044D01*
X027743619Y015347044D02*
X027754000Y015286692D01*
X027754000Y015286692D02*
X027769486Y015262389D01*
X027769486Y015262389D02*
X027785586Y015251016D01*
X027785586Y015251016D02*
X027816952Y015245860D01*
X027816952Y015245860D02*
X027844288Y015252450D01*
X027844288Y015252450D02*
X027864528Y015271680D01*
X027864528Y015271680D02*
X027871314Y015298822D01*
X028022850Y015418380D02*
X028033363Y015426623D01*
X028033363Y015426623D02*
X028050119Y015435455D01*
X028050119Y015435455D02*
X028071474Y015442812D01*
X028071474Y015442812D02*
X028097757Y015441343D01*
X028097757Y015441343D02*
X028120756Y015433983D01*
X028120756Y015433983D02*
X028137183Y015420735D01*
X028137183Y015420735D02*
X028147039Y015404543D01*
X028147039Y015404543D02*
X028143754Y015386878D01*
X028143754Y015386878D02*
X028130612Y015373630D01*
X028130612Y015373630D02*
X028107614Y015363326D01*
X028107614Y015363326D02*
X028081330Y015357438D01*
X028081330Y015357438D02*
X028058332Y015354494D01*
X028058332Y015354494D02*
X028081330Y015351550D01*
X028081330Y015351550D02*
X028107614Y015344190D01*
X028107614Y015344190D02*
X028130612Y015332414D01*
X028130612Y015332414D02*
X028145397Y015316222D01*
X028145397Y015316222D02*
X028148682Y015298558D01*
X028148682Y015298558D02*
X028142111Y015279422D01*
X028142111Y015279422D02*
X028127327Y015263230D01*
X028127327Y015263230D02*
X028104328Y015249982D01*
X028104328Y015249982D02*
X028086915Y015245860D01*
X028086915Y015245860D02*
X028058661Y015246449D01*
X028058661Y015246449D02*
X028035663Y015249982D01*
X028035663Y015249982D02*
X028019893Y015254692D01*
D14*
X046500115Y-03499977D02*
X034500139Y-03499977D01*
D14*
X046500115Y019499952D02*
X034500139Y019499952D01*
D14*
X034500139Y019499952D02*
X034500139Y-03499977D01*
D14*
X046500115Y019499952D02*
X046500115Y-03499977D01*
D17*
X033665776Y008651944D02*
X033191194Y008651944D01*
X033191194Y008651944D02*
X033191194Y008336123D01*
X033569558Y007858402D02*
X033665776Y007745562D01*
X033665776Y007745562D02*
X033191197Y007745562D01*
D22*
X030762742Y014522500D02*
X031237258Y014522500D01*
D22*
X030762742Y013477500D02*
X031237258Y013477500D01*
D23*
X030732955Y015250649D02*
X030732955Y015434204D01*
X030732955Y015434204D02*
X030786775Y015439121D01*
X030786775Y015439121D02*
X030824550Y015437477D01*
X030824550Y015437477D02*
X030847338Y015432426D01*
X030847338Y015432426D02*
X030856920Y015428308D01*
X030856920Y015428308D02*
X030864806Y015422948D01*
X030864806Y015422948D02*
X030870632Y015416211D01*
X030870632Y015416211D02*
X030875769Y015397943D01*
X030875769Y015397943D02*
X030875287Y015381742D01*
X030875287Y015381742D02*
X030870029Y015370011D01*
X030870029Y015370011D02*
X030860592Y015361975D01*
X030860592Y015361975D02*
X030847573Y015356856D01*
X030847573Y015356856D02*
X030822634Y015352953D01*
X030822634Y015352953D02*
X030736522Y015349904D01*
X030808034Y015342154D02*
X030881978Y015249288D01*
X031061719Y015400634D02*
X031106855Y015439121D01*
X031106855Y015439121D02*
X031106855Y015249290D01*
D14*
X031825000Y017875000D02*
X029575000Y017875000D01*
X029575000Y016125000D01*
X031825000Y016125000D01*
D23*
X030871314Y018397443D02*
X030862738Y018418345D01*
X030862738Y018418345D02*
X030847006Y018433145D01*
X030847006Y018433145D02*
X030817212Y018442812D01*
X030817212Y018442812D02*
X030795195Y018439860D01*
X030795195Y018439860D02*
X030775793Y018429951D01*
X030775793Y018429951D02*
X030756847Y018407079D01*
X030756847Y018407079D02*
X030743619Y018347044D01*
X030743619Y018347044D02*
X030754000Y018286692D01*
X030754000Y018286692D02*
X030769486Y018262389D01*
X030769486Y018262389D02*
X030785586Y018251016D01*
X030785586Y018251016D02*
X030816952Y018245860D01*
X030816952Y018245860D02*
X030844288Y018252450D01*
X030844288Y018252450D02*
X030864528Y018271680D01*
X030864528Y018271680D02*
X030871314Y018298822D01*
X031119994Y018442812D02*
X031095601Y018435185D01*
X031095601Y018435185D02*
X031073004Y018427612D01*
X031073004Y018427612D02*
X031053813Y018414149D01*
X031053813Y018414149D02*
X031038893Y018399929D01*
X031038893Y018399929D02*
X031027501Y018374882D01*
X031027501Y018374882D02*
X031019670Y018351405D01*
X031019670Y018351405D02*
X031018834Y018327200D01*
X031018834Y018327200D02*
X031018246Y018303078D01*
X031018246Y018303078D02*
X031024406Y018285128D01*
X031024406Y018285128D02*
X031030287Y018273908D01*
X031030287Y018273908D02*
X031044216Y018259323D01*
X031044216Y018259323D02*
X031059075Y018249506D01*
X031059075Y018249506D02*
X031081981Y018245860D01*
X031081981Y018245860D02*
X031107673Y018247262D01*
X031107673Y018247262D02*
X031127795Y018256238D01*
X031127795Y018256238D02*
X031142033Y018268298D01*
X031142033Y018268298D02*
X031149772Y018284847D01*
X031149772Y018284847D02*
X031150391Y018298871D01*
X031150391Y018298871D02*
X031146058Y018313737D01*
X031146058Y018313737D02*
X031139557Y018326358D01*
X031139557Y018326358D02*
X031129652Y018336736D01*
X031129652Y018336736D02*
X031116031Y018343187D01*
X031116031Y018343187D02*
X031097149Y018347395D01*
X031097149Y018347395D02*
X031079195Y018348236D01*
X031079195Y018348236D02*
X031060313Y018345431D01*
X031060313Y018345431D02*
X031040812Y018335334D01*
X031040812Y018335334D02*
X031030597Y018324956D01*
X031030597Y018324956D02*
X031018184Y018312278D01*
D14*
X036644381Y-09260733D02*
X036624340Y-06624340D01*
X041981200Y-06624340D01*
X043375660Y-08018800D01*
X043362300Y-09314200D01*
D14*
X036630512Y-10707695D02*
X036623832Y-13376168D01*
X041980032Y-13376168D01*
X043376168Y-11980032D01*
X043376168Y-10685800D01*
D17*
X040321714Y-14434307D02*
X040343155Y-14486563D01*
X040343155Y-14486563D02*
X040382485Y-14523561D01*
X040382485Y-14523561D02*
X040456971Y-14547731D01*
X040456971Y-14547731D02*
X040512013Y-14540350D01*
X040512013Y-14540350D02*
X040560518Y-14515576D01*
X040560518Y-14515576D02*
X040607882Y-14458398D01*
X040607882Y-14458398D02*
X040640953Y-14308309D01*
X040640953Y-14308309D02*
X040615001Y-14157431D01*
X040615001Y-14157431D02*
X040576285Y-14096672D01*
X040576285Y-14096672D02*
X040536034Y-14068239D01*
X040536034Y-14068239D02*
X040457619Y-14055350D01*
X040457619Y-14055350D02*
X040389281Y-14071825D01*
X040389281Y-14071825D02*
X040338681Y-14119901D01*
X040338681Y-14119901D02*
X040321714Y-14187755D01*
X039707054Y-14538503D02*
X039965820Y-14221261D01*
X039965820Y-14221261D02*
X039612743Y-14221261D01*
X039710073Y-14323483D02*
X039710073Y-14063921D01*
D22*
X050762742Y-14477500D02*
X051237258Y-14477500D01*
D22*
X050762742Y-15522500D02*
X051237258Y-15522500D01*
D23*
X050732955Y-13749351D02*
X050732955Y-13565796D01*
X050732955Y-13565796D02*
X050786775Y-13560879D01*
X050786775Y-13560879D02*
X050824550Y-13562523D01*
X050824550Y-13562523D02*
X050847338Y-13567574D01*
X050847338Y-13567574D02*
X050856920Y-13571692D01*
X050856920Y-13571692D02*
X050864806Y-13577052D01*
X050864806Y-13577052D02*
X050870632Y-13583789D01*
X050870632Y-13583789D02*
X050875769Y-13602057D01*
X050875769Y-13602057D02*
X050875287Y-13618258D01*
X050875287Y-13618258D02*
X050870029Y-13629989D01*
X050870029Y-13629989D02*
X050860592Y-13638025D01*
X050860592Y-13638025D02*
X050847573Y-13643144D01*
X050847573Y-13643144D02*
X050822634Y-13647047D01*
X050822634Y-13647047D02*
X050736522Y-13650096D01*
X050808034Y-13657846D02*
X050881978Y-13750712D01*
X051030915Y-13594794D02*
X051035174Y-13580842D01*
X051035174Y-13580842D02*
X051047760Y-13567830D01*
X051047760Y-13567830D02*
X051068386Y-13559007D01*
X051068386Y-13559007D02*
X051081625Y-13557188D01*
X051081625Y-13557188D02*
X051104529Y-13558864D01*
X051104529Y-13558864D02*
X051121711Y-13566397D01*
X051121711Y-13566397D02*
X051131107Y-13577950D01*
X051131107Y-13577950D02*
X051134482Y-13591376D01*
X051134482Y-13591376D02*
X051134258Y-13600306D01*
X051134258Y-13600306D02*
X051130225Y-13615254D01*
X051130225Y-13615254D02*
X051112720Y-13644317D01*
X051112720Y-13644317D02*
X051068638Y-13699603D01*
X051068638Y-13699603D02*
X051022285Y-13750453D01*
X051022285Y-13750453D02*
X051146289Y-13750453D01*
D14*
X049825000Y008875000D02*
X047575000Y008875000D01*
X047575000Y007125000D01*
X049825000Y007125000D01*
D23*
X048871314Y009397443D02*
X048862738Y009418345D01*
X048862738Y009418345D02*
X048847006Y009433145D01*
X048847006Y009433145D02*
X048817212Y009442812D01*
X048817212Y009442812D02*
X048795195Y009439860D01*
X048795195Y009439860D02*
X048775793Y009429951D01*
X048775793Y009429951D02*
X048756847Y009407079D01*
X048756847Y009407079D02*
X048743619Y009347044D01*
X048743619Y009347044D02*
X048754000Y009286692D01*
X048754000Y009286692D02*
X048769486Y009262389D01*
X048769486Y009262389D02*
X048785586Y009251016D01*
X048785586Y009251016D02*
X048816952Y009245860D01*
X048816952Y009245860D02*
X048844288Y009252450D01*
X048844288Y009252450D02*
X048864528Y009271680D01*
X048864528Y009271680D02*
X048871314Y009298822D01*
X049020986Y009439121D02*
X049020986Y009342884D01*
X049020986Y009342884D02*
X049074943Y009355540D01*
X049074943Y009355540D02*
X049113469Y009350779D01*
X049113469Y009350779D02*
X049128801Y009342187D01*
X049128801Y009342187D02*
X049139448Y009329995D01*
X049139448Y009329995D02*
X049147588Y009296768D01*
X049147588Y009296768D02*
X049143739Y009279506D01*
X049143739Y009279506D02*
X049133637Y009265921D01*
X049133637Y009265921D02*
X049113786Y009253304D01*
X049113786Y009253304D02*
X049090845Y009246666D01*
X049090845Y009246666D02*
X049069272Y009245601D01*
X049069272Y009245601D02*
X049051104Y009249065D01*
X049051104Y009249065D02*
X049036419Y009255858D01*
X049036419Y009255858D02*
X049020986Y009269830D01*
X049020986Y009439121D02*
X049147588Y009439121D01*
D14*
X044113796Y-21025398D02*
X047886204Y-21025398D01*
D14*
X044113796Y-22753106D02*
X044113796Y-17265690D01*
D14*
X047886204Y-22753106D02*
X047886204Y-17265690D01*
D14*
X044113796Y-17265690D02*
X044700612Y-17265690D01*
D14*
X047886204Y-17265690D02*
X047299388Y-17265690D01*
D17*
X043358479Y-20634234D02*
X042893755Y-20629065D01*
X042893755Y-20629065D02*
X042883897Y-20559500D01*
X042883897Y-20559500D02*
X042885043Y-20506208D01*
X042885043Y-20506208D02*
X042908455Y-20419645D01*
X042908455Y-20419645D02*
X042959013Y-20355629D01*
X042959013Y-20355629D02*
X043027089Y-20319028D01*
X043027089Y-20319028D02*
X043097674Y-20304438D01*
X043097674Y-20304438D02*
X043150819Y-20303033D01*
X043150819Y-20303033D02*
X043196367Y-20309707D01*
X043196367Y-20309707D02*
X043234893Y-20323359D01*
X043234893Y-20323359D02*
X043293187Y-20367188D01*
X043293187Y-20367188D02*
X043330297Y-20425703D01*
X043330297Y-20425703D02*
X043356303Y-20521710D01*
X043356303Y-20521710D02*
X043358479Y-20634234D01*
X042968684Y-19910014D02*
X042933805Y-19899365D01*
X042933805Y-19899365D02*
X042901276Y-19867900D01*
X042901276Y-19867900D02*
X042879217Y-19816334D01*
X042879217Y-19816334D02*
X042874669Y-19783237D01*
X042874669Y-19783237D02*
X042878859Y-19725977D01*
X042878859Y-19725977D02*
X042897694Y-19683022D01*
X042897694Y-19683022D02*
X042926576Y-19659533D01*
X042926576Y-19659533D02*
X042960139Y-19651096D01*
X042960139Y-19651096D02*
X042982464Y-19651656D01*
X042982464Y-19651656D02*
X043019834Y-19661738D01*
X043019834Y-19661738D02*
X043092492Y-19705500D01*
X043092492Y-19705500D02*
X043230707Y-19815706D01*
X043230707Y-19815706D02*
X043357832Y-19931587D01*
X043357832Y-19931587D02*
X043357832Y-19621577D01*
D14*
X047250013Y-09199999D02*
X047250013Y-09250012D01*
D14*
X047750012Y-09199999D02*
X047750012Y-09249986D01*
X047749987Y-09250012D01*
D14*
X047749987Y-08349963D02*
X047749987Y-08399975D01*
X047750012Y-08400001D01*
D14*
X047250013Y-08400001D02*
X047250013Y-08349963D01*
D14*
X047249988Y-09250012D02*
X047749987Y-09250012D01*
D14*
X047249988Y-08349963D02*
X047481915Y-08349963D01*
X047749987Y-08349963D01*
D14*
X047750012Y-09199999D02*
X047750012Y-08400001D01*
D14*
X047250013Y-09199999D02*
X047250013Y-08400001D01*
D17*
X046560279Y-09459634D02*
X046095555Y-09454465D01*
X046095555Y-09454465D02*
X046085697Y-09384900D01*
X046085697Y-09384900D02*
X046086843Y-09331608D01*
X046086843Y-09331608D02*
X046110255Y-09245045D01*
X046110255Y-09245045D02*
X046160813Y-09181029D01*
X046160813Y-09181029D02*
X046228889Y-09144428D01*
X046228889Y-09144428D02*
X046299474Y-09129838D01*
X046299474Y-09129838D02*
X046352619Y-09128433D01*
X046352619Y-09128433D02*
X046398167Y-09135107D01*
X046398167Y-09135107D02*
X046436693Y-09148759D01*
X046436693Y-09148759D02*
X046494986Y-09192588D01*
X046494986Y-09192588D02*
X046532097Y-09251103D01*
X046532097Y-09251103D02*
X046558103Y-09347110D01*
X046558103Y-09347110D02*
X046560279Y-09459634D01*
X046137551Y-08755576D02*
X046116943Y-08729292D01*
X046116943Y-08729292D02*
X046094864Y-08687403D01*
X046094864Y-08687403D02*
X046076469Y-08634015D01*
X046076469Y-08634015D02*
X046080143Y-08568307D01*
X046080143Y-08568307D02*
X046098544Y-08510811D01*
X046098544Y-08510811D02*
X046131663Y-08469742D01*
X046131663Y-08469742D02*
X046172144Y-08445101D01*
X046172144Y-08445101D02*
X046216304Y-08453315D01*
X046216304Y-08453315D02*
X046249424Y-08486170D01*
X046249424Y-08486170D02*
X046275184Y-08543666D01*
X046275184Y-08543666D02*
X046289904Y-08609375D01*
X046289904Y-08609375D02*
X046297265Y-08666869D01*
X046297265Y-08666869D02*
X046304624Y-08609375D01*
X046304624Y-08609375D02*
X046323025Y-08543666D01*
X046323025Y-08543666D02*
X046352464Y-08486170D01*
X046352464Y-08486170D02*
X046392945Y-08449208D01*
X046392945Y-08449208D02*
X046437105Y-08440995D01*
X046437105Y-08440995D02*
X046484946Y-08457422D01*
X046484946Y-08457422D02*
X046525425Y-08494383D01*
X046525425Y-08494383D02*
X046558546Y-08551880D01*
X046558546Y-08551880D02*
X046568850Y-08595412D01*
X046568850Y-08595412D02*
X046567378Y-08666048D01*
X046567378Y-08666048D02*
X046558546Y-08723543D01*
X046558546Y-08723543D02*
X046546770Y-08762968D01*
D14*
X046250013Y-10599999D02*
X046250013Y-10650012D01*
D14*
X046750012Y-10599999D02*
X046750012Y-10649986D01*
X046749987Y-10650012D01*
D14*
X046749987Y-09749963D02*
X046749987Y-09799975D01*
X046750012Y-09800001D01*
D14*
X046250013Y-09800001D02*
X046250013Y-09749963D01*
D14*
X046249988Y-10650012D02*
X046749987Y-10650012D01*
D14*
X046249988Y-09749963D02*
X046481915Y-09749963D01*
X046749987Y-09749963D01*
D14*
X046750012Y-10599999D02*
X046750012Y-09800001D01*
D14*
X046250013Y-10599999D02*
X046250013Y-09800001D01*
D17*
X045560279Y-10859634D02*
X045095555Y-10854465D01*
X045095555Y-10854465D02*
X045085697Y-10784900D01*
X045085697Y-10784900D02*
X045086843Y-10731608D01*
X045086843Y-10731608D02*
X045110255Y-10645045D01*
X045110255Y-10645045D02*
X045160813Y-10581029D01*
X045160813Y-10581029D02*
X045228889Y-10544428D01*
X045228889Y-10544428D02*
X045299474Y-10529838D01*
X045299474Y-10529838D02*
X045352619Y-10528433D01*
X045352619Y-10528433D02*
X045398167Y-10535106D01*
X045398167Y-10535106D02*
X045436693Y-10548759D01*
X045436693Y-10548759D02*
X045494986Y-10592588D01*
X045494986Y-10592588D02*
X045532097Y-10651103D01*
X045532097Y-10651103D02*
X045558103Y-10747110D01*
X045558103Y-10747110D02*
X045560279Y-10859634D01*
X045085697Y-09919754D02*
X045402939Y-10178520D01*
X045402939Y-10178520D02*
X045402939Y-09825443D01*
X045300717Y-09922773D02*
X045560279Y-09922773D01*
D14*
X047250013Y-06399999D02*
X047250013Y-06450012D01*
D14*
X047750012Y-06399999D02*
X047750012Y-06449986D01*
X047749987Y-06450012D01*
D14*
X047749987Y-05549963D02*
X047749987Y-05599975D01*
X047750012Y-05600001D01*
D14*
X047250013Y-05600001D02*
X047250013Y-05549963D01*
D14*
X047249988Y-06450012D02*
X047749987Y-06450012D01*
D14*
X047249988Y-05549963D02*
X047481915Y-05549963D01*
X047749987Y-05549963D01*
D14*
X047750012Y-06399999D02*
X047750012Y-05600001D01*
D14*
X047250013Y-06399999D02*
X047250013Y-05600001D01*
D17*
X046560279Y-06659634D02*
X046095555Y-06654465D01*
X046095555Y-06654465D02*
X046085697Y-06584900D01*
X046085697Y-06584900D02*
X046086843Y-06531608D01*
X046086843Y-06531608D02*
X046110255Y-06445045D01*
X046110255Y-06445045D02*
X046160813Y-06381029D01*
X046160813Y-06381029D02*
X046228889Y-06344428D01*
X046228889Y-06344428D02*
X046299474Y-06329838D01*
X046299474Y-06329838D02*
X046352619Y-06328433D01*
X046352619Y-06328433D02*
X046398167Y-06335107D01*
X046398167Y-06335107D02*
X046436693Y-06348759D01*
X046436693Y-06348759D02*
X046494987Y-06392588D01*
X046494987Y-06392588D02*
X046532097Y-06451103D01*
X046532097Y-06451103D02*
X046558103Y-06547110D01*
X046558103Y-06547110D02*
X046560279Y-06659634D01*
X046085697Y-05960234D02*
X046326291Y-05960234D01*
X046326291Y-05960234D02*
X046294650Y-05825342D01*
X046294650Y-05825342D02*
X046306551Y-05729027D01*
X046306551Y-05729027D02*
X046328032Y-05690699D01*
X046328032Y-05690699D02*
X046358512Y-05664080D01*
X046358512Y-05664080D02*
X046441581Y-05643729D01*
X046441581Y-05643729D02*
X046484734Y-05653354D01*
X046484734Y-05653354D02*
X046518698Y-05678608D01*
X046518698Y-05678608D02*
X046550241Y-05728235D01*
X046550241Y-05728235D02*
X046566836Y-05785589D01*
X046566836Y-05785589D02*
X046569497Y-05839521D01*
X046569497Y-05839521D02*
X046560837Y-05884939D01*
X046560837Y-05884939D02*
X046543856Y-05921652D01*
X046543856Y-05921652D02*
X046508925Y-05960234D01*
X046085697Y-05960234D02*
X046085697Y-05643729D01*
D14*
X047250013Y-07799999D02*
X047250013Y-07850012D01*
D14*
X047750012Y-07799999D02*
X047750012Y-07849986D01*
X047749987Y-07850012D01*
D14*
X047749987Y-06949963D02*
X047749987Y-06999975D01*
X047750012Y-07000001D01*
D14*
X047250013Y-07000001D02*
X047250013Y-06949963D01*
D14*
X047249988Y-07850012D02*
X047749987Y-07850012D01*
D14*
X047249988Y-06949963D02*
X047481915Y-06949963D01*
X047749987Y-06949963D01*
D14*
X047750012Y-07799999D02*
X047750012Y-07000001D01*
D14*
X047250013Y-07799999D02*
X047250013Y-07000001D01*
D17*
X046560279Y-08059634D02*
X046095555Y-08054465D01*
X046095555Y-08054465D02*
X046085697Y-07984900D01*
X046085697Y-07984900D02*
X046086843Y-07931608D01*
X046086843Y-07931608D02*
X046110255Y-07845045D01*
X046110255Y-07845045D02*
X046160813Y-07781029D01*
X046160813Y-07781029D02*
X046228889Y-07744428D01*
X046228889Y-07744428D02*
X046299474Y-07729838D01*
X046299474Y-07729838D02*
X046352619Y-07728433D01*
X046352619Y-07728433D02*
X046398167Y-07735107D01*
X046398167Y-07735107D02*
X046436693Y-07748759D01*
X046436693Y-07748759D02*
X046494987Y-07792588D01*
X046494987Y-07792588D02*
X046532097Y-07851103D01*
X046532097Y-07851103D02*
X046558103Y-07947110D01*
X046558103Y-07947110D02*
X046560279Y-08059634D01*
X046076469Y-07112716D02*
X046095537Y-07173697D01*
X046095537Y-07173697D02*
X046114469Y-07230189D01*
X046114469Y-07230189D02*
X046148127Y-07278168D01*
X046148127Y-07278168D02*
X046183678Y-07315469D01*
X046183678Y-07315469D02*
X046246295Y-07343947D01*
X046246295Y-07343947D02*
X046304987Y-07363526D01*
X046304987Y-07363526D02*
X046365501Y-07365615D01*
X046365501Y-07365615D02*
X046425804Y-07367085D01*
X046425804Y-07367085D02*
X046470681Y-07351686D01*
X046470681Y-07351686D02*
X046498729Y-07336982D01*
X046498729Y-07336982D02*
X046535192Y-07302159D01*
X046535192Y-07302159D02*
X046559734Y-07265013D01*
X046559734Y-07265013D02*
X046568850Y-07207747D01*
X046568850Y-07207747D02*
X046565344Y-07143516D01*
X046565344Y-07143516D02*
X046542906Y-07093214D01*
X046542906Y-07093214D02*
X046512754Y-07057617D01*
X046512754Y-07057617D02*
X046471383Y-07038270D01*
X046471383Y-07038270D02*
X046436322Y-07036722D01*
X046436322Y-07036722D02*
X046399159Y-07047556D01*
X046399159Y-07047556D02*
X046367604Y-07063807D01*
X046367604Y-07063807D02*
X046341660Y-07088571D01*
X046341660Y-07088571D02*
X046325532Y-07122621D01*
X046325532Y-07122621D02*
X046315014Y-07169828D01*
X046315014Y-07169828D02*
X046312911Y-07214712D01*
X046312911Y-07214712D02*
X046319923Y-07261918D01*
X046319923Y-07261918D02*
X046345166Y-07310671D01*
X046345166Y-07310671D02*
X046371110Y-07336208D01*
X046371110Y-07336208D02*
X046402804Y-07367241D01*
D14*
X052675759Y-04468978D02*
X050812846Y-04468978D01*
D14*
X056394141Y004471010D02*
X056394141Y-04468978D01*
X054912838Y-04468978D01*
D14*
X052676114Y004471010D02*
X050812491Y004471010D01*
D14*
X056394141Y004471010D02*
X054912483Y004471010D01*
D17*
X047011096Y-00334471D02*
X047368934Y-00333788D01*
X047368934Y-00333788D02*
X047413716Y-00340330D01*
X047413716Y-00340330D02*
X047437951Y-00352745D01*
X047437951Y-00352745D02*
X047457223Y-00370153D01*
X047457223Y-00370153D02*
X047471984Y-00390991D01*
X047471984Y-00390991D02*
X047489767Y-00436736D01*
X047489767Y-00436736D02*
X047494896Y-00477502D01*
X047494896Y-00477502D02*
X047488945Y-00532757D01*
X047488945Y-00532757D02*
X047472617Y-00573492D01*
X047472617Y-00573492D02*
X047456799Y-00593308D01*
X047456799Y-00593308D02*
X047437617Y-00607758D01*
X047437617Y-00607758D02*
X047415572Y-00617283D01*
X047415572Y-00617283D02*
X047391162Y-00622315D01*
X047391162Y-00622315D02*
X047364888Y-00623291D01*
X047095883Y000080080D02*
X047061004Y000090729D01*
X047061004Y000090729D02*
X047028475Y000122194D01*
X047028475Y000122194D02*
X047006416Y000173760D01*
X047006416Y000173760D02*
X047001868Y000206857D01*
X047001868Y000206857D02*
X047006058Y000264117D01*
X047006058Y000264117D02*
X047024892Y000307072D01*
X047024892Y000307072D02*
X047053775Y000330561D01*
X047053775Y000330561D02*
X047087338Y000338998D01*
X047087338Y000338998D02*
X047109663Y000338438D01*
X047109663Y000338438D02*
X047147033Y000328356D01*
X047147033Y000328356D02*
X047219690Y000284594D01*
X047219690Y000284594D02*
X047357905Y000174388D01*
X047357905Y000174388D02*
X047485030Y000058507D01*
X047485030Y000058507D02*
X047485030Y000368517D01*
D23*
X024591195Y-19685879D02*
X024746918Y-19685879D01*
X024671368Y-19685879D02*
X024671368Y-19875712D01*
X024881346Y-19875712D02*
X024881346Y-19689461D01*
X024881346Y-19689461D02*
X024919561Y-19685879D01*
X024919561Y-19685879D02*
X024953747Y-19688118D01*
X024953747Y-19688118D02*
X024975977Y-19694144D01*
X024975977Y-19694144D02*
X024985916Y-19699014D01*
X024985916Y-19699014D02*
X025001768Y-19713300D01*
X025001768Y-19713300D02*
X025008812Y-19728644D01*
X025008812Y-19728644D02*
X025010408Y-19751075D01*
X025010408Y-19751075D02*
X025004091Y-19765177D01*
X025004091Y-19765177D02*
X024994232Y-19772972D01*
X024994232Y-19772972D02*
X024978511Y-19779222D01*
X024978511Y-19779222D02*
X024955775Y-19783704D01*
X024955775Y-19783704D02*
X024924874Y-19786195D01*
X024924874Y-19786195D02*
X024884653Y-19786472D01*
X025200130Y-19724366D02*
X025245266Y-19685879D01*
X025245266Y-19685879D02*
X025245266Y-19875710D01*
D23*
X028591195Y-22685879D02*
X028746918Y-22685879D01*
X028671368Y-22685879D02*
X028671368Y-22875712D01*
X028881346Y-22875712D02*
X028881346Y-22689461D01*
X028881346Y-22689461D02*
X028919561Y-22685879D01*
X028919561Y-22685879D02*
X028953747Y-22688118D01*
X028953747Y-22688118D02*
X028975977Y-22694144D01*
X028975977Y-22694144D02*
X028985916Y-22699014D01*
X028985916Y-22699014D02*
X029001768Y-22713300D01*
X029001768Y-22713300D02*
X029008812Y-22728644D01*
X029008812Y-22728644D02*
X029010408Y-22751075D01*
X029010408Y-22751075D02*
X029004091Y-22765177D01*
X029004091Y-22765177D02*
X028994232Y-22772972D01*
X028994232Y-22772972D02*
X028978511Y-22779222D01*
X028978511Y-22779222D02*
X028955775Y-22783704D01*
X028955775Y-22783704D02*
X028924874Y-22786195D01*
X028924874Y-22786195D02*
X028884653Y-22786472D01*
X029169325Y-22719794D02*
X029173584Y-22705842D01*
X029173584Y-22705842D02*
X029186170Y-22692830D01*
X029186170Y-22692830D02*
X029206797Y-22684007D01*
X029206797Y-22684007D02*
X029220035Y-22682188D01*
X029220035Y-22682188D02*
X029242940Y-22683864D01*
X029242940Y-22683864D02*
X029260122Y-22691397D01*
X029260122Y-22691397D02*
X029269517Y-22702950D01*
X029269517Y-22702950D02*
X029272892Y-22716376D01*
X029272892Y-22716376D02*
X029272668Y-22725306D01*
X029272668Y-22725306D02*
X029268635Y-22740254D01*
X029268635Y-22740254D02*
X029251130Y-22769317D01*
X029251130Y-22769317D02*
X029207048Y-22824603D01*
X029207048Y-22824603D02*
X029160696Y-22875453D01*
X029160696Y-22875453D02*
X029284700Y-22875453D01*
D23*
X032591195Y-22685879D02*
X032746918Y-22685879D01*
X032671368Y-22685879D02*
X032671368Y-22875712D01*
X032881346Y-22875712D02*
X032881346Y-22689461D01*
X032881346Y-22689461D02*
X032919561Y-22685879D01*
X032919561Y-22685879D02*
X032953747Y-22688118D01*
X032953747Y-22688118D02*
X032975977Y-22694144D01*
X032975977Y-22694144D02*
X032985916Y-22699014D01*
X032985916Y-22699014D02*
X033001768Y-22713300D01*
X033001768Y-22713300D02*
X033008812Y-22728644D01*
X033008812Y-22728644D02*
X033010408Y-22751075D01*
X033010408Y-22751075D02*
X033004091Y-22765177D01*
X033004091Y-22765177D02*
X032994232Y-22772972D01*
X032994232Y-22772972D02*
X032978511Y-22779222D01*
X032978511Y-22779222D02*
X032955775Y-22783704D01*
X032955775Y-22783704D02*
X032924874Y-22786195D01*
X032924874Y-22786195D02*
X032884653Y-22786472D01*
X033161260Y-22706620D02*
X033171774Y-22698377D01*
X033171774Y-22698377D02*
X033188529Y-22689545D01*
X033188529Y-22689545D02*
X033209885Y-22682188D01*
X033209885Y-22682188D02*
X033236168Y-22683657D01*
X033236168Y-22683657D02*
X033259166Y-22691017D01*
X033259166Y-22691017D02*
X033275594Y-22704265D01*
X033275594Y-22704265D02*
X033285450Y-22720457D01*
X033285450Y-22720457D02*
X033282164Y-22738122D01*
X033282164Y-22738122D02*
X033269023Y-22751370D01*
X033269023Y-22751370D02*
X033246024Y-22761674D01*
X033246024Y-22761674D02*
X033219740Y-22767562D01*
X033219740Y-22767562D02*
X033196743Y-22770506D01*
X033196743Y-22770506D02*
X033219740Y-22773450D01*
X033219740Y-22773450D02*
X033246024Y-22780810D01*
X033246024Y-22780810D02*
X033269023Y-22792586D01*
X033269023Y-22792586D02*
X033283807Y-22808778D01*
X033283807Y-22808778D02*
X033287092Y-22826442D01*
X033287092Y-22826442D02*
X033280522Y-22845578D01*
X033280522Y-22845578D02*
X033265737Y-22861770D01*
X033265737Y-22861770D02*
X033242738Y-22875018D01*
X033242738Y-22875018D02*
X033225326Y-22879140D01*
X033225326Y-22879140D02*
X033197071Y-22878551D01*
X033197071Y-22878551D02*
X033174073Y-22875018D01*
X033174073Y-22875018D02*
X033158303Y-22870308D01*
D50*
X-47330784Y027748577D02*
X-47326649Y028120356D01*
X-47326649Y028120356D02*
X-47270997Y028128242D01*
X-47270997Y028128242D02*
X-47228364Y028127326D01*
X-47228364Y028127326D02*
X-47159113Y028108596D01*
X-47159113Y028108596D02*
X-47107900Y028068150D01*
X-47107900Y028068150D02*
X-47078620Y028013689D01*
X-47078620Y028013689D02*
X-47066947Y027957220D01*
X-47066947Y027957220D02*
X-47065823Y027914705D01*
X-47065823Y027914705D02*
X-47071162Y027878267D01*
X-47071162Y027878267D02*
X-47082084Y027847445D01*
X-47082084Y027847445D02*
X-47117148Y027800811D01*
X-47117148Y027800811D02*
X-47163959Y027771122D01*
X-47163959Y027771122D02*
X-47240765Y027750317D01*
X-47240765Y027750317D02*
X-47330784Y027748577D01*
X-46803119Y027748577D02*
X-46650737Y028128242D01*
X-46650737Y028128242D02*
X-46486205Y027748577D01*
X-46726267Y027896668D02*
X-46570450Y027896668D01*
X-46221587Y027748577D02*
X-46221587Y028128242D01*
X-46221587Y028128242D02*
X-45960454Y027748577D01*
X-45960454Y027748577D02*
X-45965578Y028128242D01*
X-45427055Y028120432D02*
X-45496166Y028135625D01*
X-45496166Y028135625D02*
X-45569191Y028129557D01*
X-45569191Y028129557D02*
X-45616030Y028105282D01*
X-45616030Y028105282D02*
X-45653002Y028057055D01*
X-45653002Y028057055D02*
X-45674371Y027952938D01*
X-45674371Y027952938D02*
X-45662972Y027840102D01*
X-45662972Y027840102D02*
X-45638269Y027799410D01*
X-45638269Y027799410D02*
X-45600143Y027766629D01*
X-45600143Y027766629D02*
X-45554189Y027745989D01*
X-45554189Y027745989D02*
X-45505995Y027741720D01*
X-45505995Y027741720D02*
X-45461150Y027758054D01*
X-45461150Y027758054D02*
X-45425247Y027799218D01*
X-45425247Y027799218D02*
X-45400386Y027916778D01*
X-45400386Y027916778D02*
X-45521380Y027917047D01*
X-45107468Y028128242D02*
X-45107468Y027748577D01*
X-45107468Y028128242D02*
X-44860007Y028128242D01*
X-45107468Y027938411D02*
X-44934245Y027938411D01*
X-45107468Y027748577D02*
X-44860007Y027748577D01*
X-44579120Y027751297D02*
X-44579120Y028118409D01*
X-44579120Y028118409D02*
X-44471479Y028128242D01*
X-44471479Y028128242D02*
X-44395929Y028124954D01*
X-44395929Y028124954D02*
X-44350354Y028114852D01*
X-44350354Y028114852D02*
X-44331190Y028106616D01*
X-44331190Y028106616D02*
X-44315417Y028095896D01*
X-44315417Y028095896D02*
X-44303765Y028082422D01*
X-44303765Y028082422D02*
X-44293491Y028045886D01*
X-44293491Y028045886D02*
X-44294455Y028013484D01*
X-44294455Y028013484D02*
X-44304971Y027990022D01*
X-44304971Y027990022D02*
X-44323845Y027973950D01*
X-44323845Y027973950D02*
X-44349882Y027963713D01*
X-44349882Y027963713D02*
X-44399761Y027955906D01*
X-44399761Y027955906D02*
X-44571985Y027949809D01*
X-44428960Y027934309D02*
X-44281072Y027748577D01*
X-42900284Y028128242D02*
X-42900284Y027748577D01*
X-42900284Y027946432D02*
X-42640941Y027946432D01*
X-42638058Y028128242D02*
X-42638058Y027748577D01*
X-42373986Y027748577D02*
X-42221604Y028128242D01*
X-42221604Y028128242D02*
X-42057072Y027748577D01*
X-42297134Y027896668D02*
X-42141317Y027896668D01*
X-41800384Y028128242D02*
X-41523391Y028128242D01*
X-41523391Y028128242D02*
X-41800384Y027748577D01*
X-41800384Y027748577D02*
X-41523391Y027748577D01*
X-41266703Y027748577D02*
X-41114321Y028128242D01*
X-41114321Y028128242D02*
X-40949789Y027748577D01*
X-41189851Y027896668D02*
X-41034034Y027896668D01*
X-40703628Y027751297D02*
X-40703628Y028118409D01*
X-40703628Y028118409D02*
X-40595988Y028128242D01*
X-40595988Y028128242D02*
X-40520438Y028124954D01*
X-40520438Y028124954D02*
X-40474862Y028114852D01*
X-40474862Y028114852D02*
X-40455699Y028106616D01*
X-40455699Y028106616D02*
X-40439926Y028095896D01*
X-40439926Y028095896D02*
X-40428274Y028082422D01*
X-40428274Y028082422D02*
X-40418000Y028045886D01*
X-40418000Y028045886D02*
X-40418964Y028013484D01*
X-40418964Y028013484D02*
X-40429480Y027990022D01*
X-40429480Y027990022D02*
X-40448354Y027973950D01*
X-40448354Y027973950D02*
X-40474391Y027963713D01*
X-40474391Y027963713D02*
X-40524270Y027955906D01*
X-40524270Y027955906D02*
X-40696494Y027949809D01*
X-40553469Y027934309D02*
X-40405581Y027748577D01*
X-40133443Y027748577D02*
X-40129308Y028120356D01*
X-40129308Y028120356D02*
X-40073656Y028128242D01*
X-40073656Y028128242D02*
X-40031023Y028127326D01*
X-40031023Y028127326D02*
X-39961772Y028108596D01*
X-39961772Y028108596D02*
X-39910559Y028068150D01*
X-39910559Y028068150D02*
X-39881279Y028013689D01*
X-39881279Y028013689D02*
X-39869607Y027957220D01*
X-39869607Y027957220D02*
X-39868482Y027914705D01*
X-39868482Y027914705D02*
X-39873821Y027878267D01*
X-39873821Y027878267D02*
X-39884743Y027847445D01*
X-39884743Y027847445D02*
X-39919807Y027800811D01*
X-39919807Y027800811D02*
X-39966618Y027771122D01*
X-39966618Y027771122D02*
X-40043424Y027750317D01*
X-40043424Y027750317D02*
X-40133443Y027748577D01*
X-39455012Y027741720D02*
X-39504775Y027757202D01*
X-39504775Y027757202D02*
X-39550264Y027804307D01*
X-39550264Y027804307D02*
X-39583904Y027964191D01*
X-39583904Y027964191D02*
X-39551861Y028083857D01*
X-39551861Y028083857D02*
X-39512548Y028117940D01*
X-39512548Y028117940D02*
X-39444479Y028135625D01*
X-39444479Y028135625D02*
X-39380394Y028114397D01*
X-39380394Y028114397D02*
X-39342872Y028075598D01*
X-39342872Y028075598D02*
X-39310739Y027929835D01*
X-39310739Y027929835D02*
X-39326731Y027837811D01*
X-39326731Y027837811D02*
X-39355229Y027784626D01*
X-39355229Y027784626D02*
X-39405849Y027748399D01*
X-39405849Y027748399D02*
X-39455012Y027741720D01*
X-39021922Y028128242D02*
X-39021330Y027916630D01*
X-39021330Y027916630D02*
X-39017246Y027859065D01*
X-39017246Y027859065D02*
X-39006801Y027816425D01*
X-39006801Y027816425D02*
X-38986774Y027783992D01*
X-38986774Y027783992D02*
X-38960575Y027762547D01*
X-38960575Y027762547D02*
X-38921435Y027747059D01*
X-38921435Y027747059D02*
X-38872048Y027741202D01*
X-38872048Y027741202D02*
X-38837385Y027747066D01*
X-38837385Y027747066D02*
X-38808955Y027762512D01*
X-38808955Y027762512D02*
X-38791942Y027780608D01*
X-38791942Y027780608D02*
X-38784637Y027792504D01*
X-38784637Y027792504D02*
X-38773463Y027822833D01*
X-38773463Y027822833D02*
X-38768247Y027863009D01*
X-38768247Y027863009D02*
X-38765437Y028127670D01*
X-38238112Y028075974D02*
X-38280350Y028130213D01*
X-38280350Y028130213D02*
X-38380468Y028135625D01*
X-38380468Y028135625D02*
X-38436584Y028096564D01*
X-38436584Y028096564D02*
X-38459494Y028024898D01*
X-38459494Y028024898D02*
X-38450005Y027989513D01*
X-38450005Y027989513D02*
X-38414503Y027958948D01*
X-38414503Y027958948D02*
X-38273816Y027934302D01*
X-38273816Y027934302D02*
X-38226487Y027905168D01*
X-38226487Y027905168D02*
X-38208925Y027854779D01*
X-38208925Y027854779D02*
X-38232059Y027775969D01*
X-38232059Y027775969D02*
X-38302719Y027741720D01*
X-38302719Y027741720D02*
X-38393569Y027744270D01*
X-38393569Y027744270D02*
X-38443255Y027772059D01*
X-38443255Y027772059D02*
X-38471152Y027837413D01*
X-37377540Y027748577D02*
X-37377540Y028128242D01*
X-37377540Y028128242D02*
X-37232754Y027881004D01*
X-37232754Y027881004D02*
X-37087970Y028128242D01*
X-37087970Y028128242D02*
X-37087970Y027748577D01*
X-36837570Y027748577D02*
X-36685188Y028128242D01*
X-36685188Y028128242D02*
X-36520656Y027748577D01*
X-36760718Y027896668D02*
X-36604901Y027896668D01*
X-36125472Y028128242D02*
X-36125472Y027748577D01*
X-35702397Y027748577D02*
X-35702397Y028128242D01*
X-35702397Y028128242D02*
X-35441263Y027748577D01*
X-35441263Y027748577D02*
X-35446387Y028128242D01*
X-34916262Y028075974D02*
X-34958500Y028130213D01*
X-34958500Y028130213D02*
X-35058618Y028135625D01*
X-35058618Y028135625D02*
X-35114734Y028096564D01*
X-35114734Y028096564D02*
X-35137644Y028024898D01*
X-35137644Y028024898D02*
X-35128156Y027989513D01*
X-35128156Y027989513D02*
X-35092653Y027958948D01*
X-35092653Y027958948D02*
X-34951966Y027934302D01*
X-34951966Y027934302D02*
X-34904637Y027905168D01*
X-34904637Y027905168D02*
X-34887075Y027854779D01*
X-34887075Y027854779D02*
X-34910209Y027775969D01*
X-34910209Y027775969D02*
X-34980869Y027741720D01*
X-34980869Y027741720D02*
X-35071719Y027744270D01*
X-35071719Y027744270D02*
X-35121405Y027772059D01*
X-35121405Y027772059D02*
X-35149302Y027837413D01*
D51*
X-42948210Y-28958345D02*
X-42874864Y-28895803D01*
X-42874864Y-28895803D02*
X-42874864Y-29204280D01*
X-42461704Y-28889805D02*
X-42504671Y-28901440D01*
X-42504671Y-28901440D02*
X-42543141Y-28936895D01*
X-42543141Y-28936895D02*
X-42564125Y-28988371D01*
X-42564125Y-28988371D02*
X-42569122Y-29064711D01*
X-42569122Y-29064711D02*
X-42557131Y-29128715D01*
X-42557131Y-29128715D02*
X-42526154Y-29181756D01*
X-42526154Y-29181756D02*
X-42481688Y-29209852D01*
X-42481688Y-29209852D02*
X-42441719Y-29209852D01*
X-42441719Y-29209852D02*
X-42397252Y-29181756D01*
X-42397252Y-29181756D02*
X-42366276Y-29128715D01*
X-42366276Y-29128715D02*
X-42354285Y-29064711D01*
X-42354285Y-29064711D02*
X-42359281Y-28988371D01*
X-42359281Y-28988371D02*
X-42380265Y-28936895D01*
X-42380265Y-28936895D02*
X-42418736Y-28901440D01*
X-42418736Y-28901440D02*
X-42461704Y-28889805D01*
X-42011870Y-28889805D02*
X-42054837Y-28901440D01*
X-42054837Y-28901440D02*
X-42093307Y-28936895D01*
X-42093307Y-28936895D02*
X-42114292Y-28988371D01*
X-42114292Y-28988371D02*
X-42119288Y-29064711D01*
X-42119288Y-29064711D02*
X-42107297Y-29128715D01*
X-42107297Y-29128715D02*
X-42076321Y-29181756D01*
X-42076321Y-29181756D02*
X-42031854Y-29209852D01*
X-42031854Y-29209852D02*
X-41991885Y-29209852D01*
X-41991885Y-29209852D02*
X-41947418Y-29181756D01*
X-41947418Y-29181756D02*
X-41916442Y-29128715D01*
X-41916442Y-29128715D02*
X-41904451Y-29064711D01*
X-41904451Y-29064711D02*
X-41909447Y-28988371D01*
X-41909447Y-28988371D02*
X-41930431Y-28936895D01*
X-41930431Y-28936895D02*
X-41968902Y-28901440D01*
X-41968902Y-28901440D02*
X-42011870Y-28889805D01*
X-41619911Y-29084646D02*
X-41504161Y-29084646D01*
X-41198933Y-28950915D02*
X-41192011Y-28928243D01*
X-41192011Y-28928243D02*
X-41171559Y-28907099D01*
X-41171559Y-28907099D02*
X-41138041Y-28892761D01*
X-41138041Y-28892761D02*
X-41116528Y-28889805D01*
X-41116528Y-28889805D02*
X-41079309Y-28892529D01*
X-41079309Y-28892529D02*
X-41051388Y-28904771D01*
X-41051388Y-28904771D02*
X-41036120Y-28923545D01*
X-41036120Y-28923545D02*
X-41030636Y-28945360D01*
X-41030636Y-28945360D02*
X-41031000Y-28959872D01*
X-41031000Y-28959872D02*
X-41037554Y-28984162D01*
X-41037554Y-28984162D02*
X-41065999Y-29031390D01*
X-41065999Y-29031390D02*
X-41137633Y-29121229D01*
X-41137633Y-29121229D02*
X-41212956Y-29203860D01*
X-41212956Y-29203860D02*
X-41011449Y-29203860D01*
X-40608920Y-28895803D02*
X-40777118Y-29102011D01*
X-40777118Y-29102011D02*
X-40547618Y-29102011D01*
X-40610883Y-29035566D02*
X-40610883Y-29204281D01*
X-40212535Y-28889805D02*
X-40255502Y-28901440D01*
X-40255502Y-28901440D02*
X-40293972Y-28936895D01*
X-40293972Y-28936895D02*
X-40314956Y-28988371D01*
X-40314956Y-28988371D02*
X-40319953Y-29064711D01*
X-40319953Y-29064711D02*
X-40307962Y-29128715D01*
X-40307962Y-29128715D02*
X-40276985Y-29181756D01*
X-40276985Y-29181756D02*
X-40232519Y-29209852D01*
X-40232519Y-29209852D02*
X-40192550Y-29209852D01*
X-40192550Y-29209852D02*
X-40148083Y-29181756D01*
X-40148083Y-29181756D02*
X-40117107Y-29128715D01*
X-40117107Y-29128715D02*
X-40105116Y-29064711D01*
X-40105116Y-29064711D02*
X-40110112Y-28988371D01*
X-40110112Y-28988371D02*
X-40131096Y-28936895D01*
X-40131096Y-28936895D02*
X-40169567Y-28901440D01*
X-40169567Y-28901440D02*
X-40212535Y-28889805D01*
X-39887004Y-28895803D02*
X-39754030Y-29204281D01*
X-39754030Y-29204281D02*
X-39638398Y-28895803D01*
X-39441613Y-29204281D02*
X-39317802Y-28895803D01*
X-39317802Y-28895803D02*
X-39184120Y-29204281D01*
X-39379171Y-29083957D02*
X-39252569Y-29083957D01*
X-38759280Y-28963530D02*
X-38773217Y-28929564D01*
X-38773217Y-28929564D02*
X-38798782Y-28905515D01*
X-38798782Y-28905515D02*
X-38847197Y-28889805D01*
X-38847197Y-28889805D02*
X-38882974Y-28894602D01*
X-38882974Y-28894602D02*
X-38914503Y-28910705D01*
X-38914503Y-28910705D02*
X-38945289Y-28947872D01*
X-38945289Y-28947872D02*
X-38966786Y-29045429D01*
X-38966786Y-29045429D02*
X-38949917Y-29143500D01*
X-38949917Y-29143500D02*
X-38924752Y-29182993D01*
X-38924752Y-29182993D02*
X-38898588Y-29201474D01*
X-38898588Y-29201474D02*
X-38847619Y-29209852D01*
X-38847619Y-29209852D02*
X-38803199Y-29199144D01*
X-38803199Y-29199144D02*
X-38770309Y-29167895D01*
X-38770309Y-29167895D02*
X-38759280Y-29123790D01*
X-38066230Y-28895803D02*
X-38066230Y-29052189D01*
X-38066230Y-29052189D02*
X-37978549Y-29031622D01*
X-37978549Y-29031622D02*
X-37915945Y-29039358D01*
X-37915945Y-29039358D02*
X-37891031Y-29053321D01*
X-37891031Y-29053321D02*
X-37873730Y-29073133D01*
X-37873730Y-29073133D02*
X-37860501Y-29127127D01*
X-37860501Y-29127127D02*
X-37866757Y-29155177D01*
X-37866757Y-29155177D02*
X-37883173Y-29177253D01*
X-37883173Y-29177253D02*
X-37915430Y-29197757D01*
X-37915430Y-29197757D02*
X-37952710Y-29208543D01*
X-37952710Y-29208543D02*
X-37987766Y-29210273D01*
X-37987766Y-29210273D02*
X-38017288Y-29204644D01*
X-38017288Y-29204644D02*
X-38041151Y-29193606D01*
X-38041151Y-29193606D02*
X-38066230Y-29170901D01*
X-38066230Y-28895803D02*
X-37860501Y-28895803D01*
X-37513532Y-28889805D02*
X-37556499Y-28901440D01*
X-37556499Y-28901440D02*
X-37594969Y-28936895D01*
X-37594969Y-28936895D02*
X-37615954Y-28988371D01*
X-37615954Y-28988371D02*
X-37620950Y-29064711D01*
X-37620950Y-29064711D02*
X-37608959Y-29128715D01*
X-37608959Y-29128715D02*
X-37577983Y-29181756D01*
X-37577983Y-29181756D02*
X-37533516Y-29209852D01*
X-37533516Y-29209852D02*
X-37493547Y-29209852D01*
X-37493547Y-29209852D02*
X-37449080Y-29181756D01*
X-37449080Y-29181756D02*
X-37418104Y-29128715D01*
X-37418104Y-29128715D02*
X-37406113Y-29064711D01*
X-37406113Y-29064711D02*
X-37411109Y-28988371D01*
X-37411109Y-28988371D02*
X-37432093Y-28936895D01*
X-37432093Y-28936895D02*
X-37470564Y-28901440D01*
X-37470564Y-28901440D02*
X-37513532Y-28889805D01*
X-37172227Y-29243538D02*
X-36955169Y-28895803D01*
X-36555841Y-28889805D02*
X-36595479Y-28902199D01*
X-36595479Y-28902199D02*
X-36632199Y-28914505D01*
X-36632199Y-28914505D02*
X-36663385Y-28936383D01*
X-36663385Y-28936383D02*
X-36687631Y-28959491D01*
X-36687631Y-28959491D02*
X-36706141Y-29000192D01*
X-36706141Y-29000192D02*
X-36718868Y-29038341D01*
X-36718868Y-29038341D02*
X-36720226Y-29077676D01*
X-36720226Y-29077676D02*
X-36721181Y-29116873D01*
X-36721181Y-29116873D02*
X-36711172Y-29146043D01*
X-36711172Y-29146043D02*
X-36701615Y-29164274D01*
X-36701615Y-29164274D02*
X-36678979Y-29187975D01*
X-36678979Y-29187975D02*
X-36654835Y-29203927D01*
X-36654835Y-29203927D02*
X-36617612Y-29209852D01*
X-36617612Y-29209852D02*
X-36575862Y-29207574D01*
X-36575862Y-29207574D02*
X-36543165Y-29192989D01*
X-36543165Y-29192989D02*
X-36520027Y-29173390D01*
X-36520027Y-29173390D02*
X-36507451Y-29146499D01*
X-36507451Y-29146499D02*
X-36506445Y-29123709D01*
X-36506445Y-29123709D02*
X-36513488Y-29099553D01*
X-36513488Y-29099553D02*
X-36524051Y-29079043D01*
X-36524051Y-29079043D02*
X-36540147Y-29062179D01*
X-36540147Y-29062179D02*
X-36562280Y-29051696D01*
X-36562280Y-29051696D02*
X-36592964Y-29044859D01*
X-36592964Y-29044859D02*
X-36622139Y-29043492D01*
X-36622139Y-29043492D02*
X-36652823Y-29048050D01*
X-36652823Y-29048050D02*
X-36684512Y-29064458D01*
X-36684512Y-29064458D02*
X-36701111Y-29081322D01*
X-36701111Y-29081322D02*
X-36721282Y-29101923D01*
X-36164031Y-28889805D02*
X-36206997Y-28901440D01*
X-36206997Y-28901440D02*
X-36245468Y-28936895D01*
X-36245468Y-28936895D02*
X-36266452Y-28988371D01*
X-36266452Y-28988371D02*
X-36271449Y-29064711D01*
X-36271449Y-29064711D02*
X-36259458Y-29128715D01*
X-36259458Y-29128715D02*
X-36228481Y-29181756D01*
X-36228481Y-29181756D02*
X-36184015Y-29209852D01*
X-36184015Y-29209852D02*
X-36144046Y-29209852D01*
X-36144046Y-29209852D02*
X-36099579Y-29181756D01*
X-36099579Y-29181756D02*
X-36068603Y-29128715D01*
X-36068603Y-29128715D02*
X-36056612Y-29064711D01*
X-36056612Y-29064711D02*
X-36061608Y-28988371D01*
X-36061608Y-28988371D02*
X-36082592Y-28936895D01*
X-36082592Y-28936895D02*
X-36121063Y-28901440D01*
X-36121063Y-28901440D02*
X-36164031Y-28889805D01*
X-35820726Y-28895803D02*
X-35820726Y-29204281D01*
X-35820726Y-29043524D02*
X-35610009Y-29043524D01*
X-35607667Y-28895803D02*
X-35607667Y-29204281D01*
X-35171385Y-28978227D02*
X-35357340Y-29210051D01*
X-35357340Y-28978227D02*
X-35171385Y-28978227D01*
X-35357340Y-29210051D02*
X-35171385Y-29210051D01*
D50*
X-52234574Y-03871758D02*
X-52234574Y-04251423D01*
X-52234574Y-04251423D02*
X-51981918Y-04251423D01*
D50*
X-46238813Y-04251423D02*
X-46238813Y-03871758D01*
X-46238813Y-03871758D02*
X-45977679Y-04251423D01*
X-45977679Y-04251423D02*
X-45982803Y-03871758D01*
D52*
X-14712387Y-07879773D02*
X-14712387Y-08235709D01*
X-14712387Y-08050220D02*
X-14469252Y-08050220D01*
X-14466550Y-07879773D02*
X-14466550Y-08235709D01*
X-14188862Y-07879773D02*
X-14188862Y-08235709D01*
X-14188862Y-08235709D02*
X-13951996Y-08235709D01*
X-13690843Y-07879773D02*
X-13690843Y-08235709D01*
X-13445744Y-07903502D02*
X-13690843Y-08098607D01*
X-13597875Y-08043240D02*
X-13411937Y-08227799D01*
X-13099130Y-08097668D02*
X-12965572Y-08097668D01*
X-12613386Y-07943363D02*
X-12605400Y-07917204D01*
X-12605400Y-07917204D02*
X-12581801Y-07892807D01*
X-12581801Y-07892807D02*
X-12543127Y-07876263D01*
X-12543127Y-07876263D02*
X-12518304Y-07872852D01*
X-12518304Y-07872852D02*
X-12475359Y-07875994D01*
X-12475359Y-07875994D02*
X-12443142Y-07890120D01*
X-12443142Y-07890120D02*
X-12425526Y-07911782D01*
X-12425526Y-07911782D02*
X-12419198Y-07936954D01*
X-12419198Y-07936954D02*
X-12419618Y-07953698D01*
X-12419618Y-07953698D02*
X-12427180Y-07981726D01*
X-12427180Y-07981726D02*
X-12460001Y-08036219D01*
X-12460001Y-08036219D02*
X-12542656Y-08139880D01*
X-12542656Y-08139880D02*
X-12629566Y-08235224D01*
X-12629566Y-08235224D02*
X-12397058Y-08235224D01*
X-11994274Y-07872852D02*
X-12043851Y-07886277D01*
X-12043851Y-07886277D02*
X-12088240Y-07927186D01*
X-12088240Y-07927186D02*
X-12112452Y-07986582D01*
X-12112452Y-07986582D02*
X-12118217Y-08074666D01*
X-12118217Y-08074666D02*
X-12104382Y-08148517D01*
X-12104382Y-08148517D02*
X-12068640Y-08209718D01*
X-12068640Y-08209718D02*
X-12017332Y-08242137D01*
X-12017332Y-08242137D02*
X-11971214Y-08242137D01*
X-11971214Y-08242137D02*
X-11919906Y-08209718D01*
X-11919906Y-08209718D02*
X-11884165Y-08148517D01*
X-11884165Y-08148517D02*
X-11870329Y-08074666D01*
X-11870329Y-08074666D02*
X-11876093Y-07986582D01*
X-11876093Y-07986582D02*
X-11900306Y-07927186D01*
X-11900306Y-07927186D02*
X-11944696Y-07886277D01*
X-11944696Y-07886277D02*
X-11994274Y-07872852D01*
X-11610970Y-08235709D02*
X-11610970Y-07879773D01*
X-11610970Y-07879773D02*
X-11475234Y-08111558D01*
X-11475234Y-08111558D02*
X-11339498Y-07879773D01*
X-11339498Y-07879773D02*
X-11339498Y-08235709D01*
X-10998510Y-07951936D02*
X-10913880Y-07879773D01*
X-10913880Y-07879773D02*
X-10913880Y-08235707D01*
X-10555846Y-07879773D02*
X-10555846Y-08060218D01*
X-10555846Y-08060218D02*
X-10454676Y-08036488D01*
X-10454676Y-08036488D02*
X-10382440Y-08045414D01*
X-10382440Y-08045414D02*
X-10353694Y-08061524D01*
X-10353694Y-08061524D02*
X-10333730Y-08084384D01*
X-10333730Y-08084384D02*
X-10318467Y-08146686D01*
X-10318467Y-08146686D02*
X-10325685Y-08179051D01*
X-10325685Y-08179051D02*
X-10344626Y-08204523D01*
X-10344626Y-08204523D02*
X-10381847Y-08228181D01*
X-10381847Y-08228181D02*
X-10424861Y-08240627D01*
X-10424861Y-08240627D02*
X-10465311Y-08242623D01*
X-10465311Y-08242623D02*
X-10499374Y-08236128D01*
X-10499374Y-08236128D02*
X-10526909Y-08223392D01*
X-10526909Y-08223392D02*
X-10555846Y-08197194D01*
X-10555846Y-07879773D02*
X-10318467Y-07879773D01*
X-09798403Y-07957920D02*
X-09814483Y-07918728D01*
X-09814483Y-07918728D02*
X-09843981Y-07890979D01*
X-09843981Y-07890979D02*
X-09899845Y-07872852D01*
X-09899845Y-07872852D02*
X-09941127Y-07878387D01*
X-09941127Y-07878387D02*
X-09977505Y-07896968D01*
X-09977505Y-07896968D02*
X-10013028Y-07939852D01*
X-10013028Y-07939852D02*
X-10037832Y-08052418D01*
X-10037832Y-08052418D02*
X-10018368Y-08165577D01*
X-10018368Y-08165577D02*
X-09989331Y-08211146D01*
X-09989331Y-08211146D02*
X-09959142Y-08232471D01*
X-09959142Y-08232471D02*
X-09900331Y-08242137D01*
X-09900331Y-08242137D02*
X-09849078Y-08229781D01*
X-09849078Y-08229781D02*
X-09811128Y-08193724D01*
X-09811128Y-08193724D02*
X-09798403Y-08142834D01*
X-08880039Y-07879773D02*
X-08880039Y-08235709D01*
X-08265445Y-07928775D02*
X-08305042Y-07877925D01*
X-08305042Y-07877925D02*
X-08398903Y-07872852D01*
X-08398903Y-07872852D02*
X-08451512Y-07909472D01*
X-08451512Y-07909472D02*
X-08472990Y-07976658D01*
X-08472990Y-07976658D02*
X-08464095Y-08009832D01*
X-08464095Y-08009832D02*
X-08430811Y-08038486D01*
X-08430811Y-08038486D02*
X-08298917Y-08061592D01*
X-08298917Y-08061592D02*
X-08254546Y-08088905D01*
X-08254546Y-08088905D02*
X-08238082Y-08136145D01*
X-08238082Y-08136145D02*
X-08259770Y-08210029D01*
X-08259770Y-08210029D02*
X-08326013Y-08242137D01*
X-08326013Y-08242137D02*
X-08411185Y-08239747D01*
X-08411185Y-08239747D02*
X-08457766Y-08213695D01*
X-08457766Y-08213695D02*
X-08483919Y-08152425D01*
X-07849171Y-08242137D02*
X-07895824Y-08227623D01*
X-07895824Y-08227623D02*
X-07938470Y-08183462D01*
X-07938470Y-08183462D02*
X-07970007Y-08033571D01*
X-07970007Y-08033571D02*
X-07939967Y-07921384D01*
X-07939967Y-07921384D02*
X-07903111Y-07889431D01*
X-07903111Y-07889431D02*
X-07839297Y-07872852D01*
X-07839297Y-07872852D02*
X-07779217Y-07892753D01*
X-07779217Y-07892753D02*
X-07744040Y-07929127D01*
X-07744040Y-07929127D02*
X-07713915Y-08065779D01*
X-07713915Y-08065779D02*
X-07728908Y-08152053D01*
X-07728908Y-08152053D02*
X-07755625Y-08201913D01*
X-07755625Y-08201913D02*
X-07803081Y-08235876D01*
X-07803081Y-08235876D02*
X-07849171Y-08242137D01*
X-07441355Y-07879773D02*
X-07441355Y-08235709D01*
X-07441355Y-08235709D02*
X-07204489Y-08235709D01*
X-06952437Y-08235709D02*
X-06809578Y-07879773D01*
X-06809578Y-07879773D02*
X-06655329Y-08235709D01*
X-06880388Y-08096874D02*
X-06734309Y-08096874D01*
X-06430835Y-07879773D02*
X-06138854Y-07879773D01*
X-06280509Y-07879773D02*
X-06280509Y-08235709D01*
X-05881803Y-07879773D02*
X-05881803Y-08235709D01*
X-05881803Y-07879773D02*
X-05649808Y-07879773D01*
X-05881803Y-08057740D02*
X-05719406Y-08057740D01*
X-05881803Y-08235709D02*
X-05649808Y-08235709D01*
X-05370967Y-08235709D02*
X-05367090Y-07887166D01*
X-05367090Y-07887166D02*
X-05314916Y-07879773D01*
X-05314916Y-07879773D02*
X-05274947Y-07880632D01*
X-05274947Y-07880632D02*
X-05210025Y-07898191D01*
X-05210025Y-07898191D02*
X-05162013Y-07936110D01*
X-05162013Y-07936110D02*
X-05134562Y-07987166D01*
X-05134562Y-07987166D02*
X-05123620Y-08040106D01*
X-05123620Y-08040106D02*
X-05122566Y-08079964D01*
X-05122566Y-08079964D02*
X-05127571Y-08114125D01*
X-05127571Y-08114125D02*
X-05137810Y-08143020D01*
X-05137810Y-08143020D02*
X-05170682Y-08186740D01*
X-05170682Y-08186740D02*
X-05214568Y-08214573D01*
X-05214568Y-08214573D02*
X-05286573Y-08234078D01*
X-05286573Y-08234078D02*
X-05370967Y-08235709D01*
X-04344424Y-08235709D02*
X-04344424Y-07879773D01*
X-04344424Y-07879773D02*
X-04208688Y-08111558D01*
X-04208688Y-08111558D02*
X-04072952Y-07879773D01*
X-04072952Y-07879773D02*
X-04072952Y-08235709D01*
X-03696859Y-08242137D02*
X-03743512Y-08227623D01*
X-03743512Y-08227623D02*
X-03786158Y-08183462D01*
X-03786158Y-08183462D02*
X-03817695Y-08033571D01*
X-03817695Y-08033571D02*
X-03787655Y-07921384D01*
X-03787655Y-07921384D02*
X-03750799Y-07889431D01*
X-03750799Y-07889431D02*
X-03686985Y-07872852D01*
X-03686985Y-07872852D02*
X-03626905Y-07892753D01*
X-03626905Y-07892753D02*
X-03591728Y-07929127D01*
X-03591728Y-07929127D02*
X-03561603Y-08065779D01*
X-03561603Y-08065779D02*
X-03576596Y-08152053D01*
X-03576596Y-08152053D02*
X-03603313Y-08201913D01*
X-03603313Y-08201913D02*
X-03650769Y-08235876D01*
X-03650769Y-08235876D02*
X-03696859Y-08242137D01*
X-03294811Y-08235709D02*
X-03290934Y-07887166D01*
X-03290934Y-07887166D02*
X-03238760Y-07879773D01*
X-03238760Y-07879773D02*
X-03198791Y-07880632D01*
X-03198791Y-07880632D02*
X-03133869Y-07898191D01*
X-03133869Y-07898191D02*
X-03085857Y-07936110D01*
X-03085857Y-07936110D02*
X-03058406Y-07987166D01*
X-03058406Y-07987166D02*
X-03047464Y-08040106D01*
X-03047464Y-08040106D02*
X-03046410Y-08079964D01*
X-03046410Y-08079964D02*
X-03051415Y-08114125D01*
X-03051415Y-08114125D02*
X-03061654Y-08143020D01*
X-03061654Y-08143020D02*
X-03094526Y-08186740D01*
X-03094526Y-08186740D02*
X-03138412Y-08214573D01*
X-03138412Y-08214573D02*
X-03210417Y-08234078D01*
X-03210417Y-08234078D02*
X-03294811Y-08235709D01*
X-02771798Y-07879773D02*
X-02771243Y-08078159D01*
X-02771243Y-08078159D02*
X-02767415Y-08132127D01*
X-02767415Y-08132127D02*
X-02757622Y-08172102D01*
X-02757622Y-08172102D02*
X-02738847Y-08202508D01*
X-02738847Y-08202508D02*
X-02714285Y-08222612D01*
X-02714285Y-08222612D02*
X-02677591Y-08237132D01*
X-02677591Y-08237132D02*
X-02631291Y-08242623D01*
X-02631291Y-08242623D02*
X-02598795Y-08237126D01*
X-02598795Y-08237126D02*
X-02572142Y-08222645D01*
X-02572142Y-08222645D02*
X-02556192Y-08205680D01*
X-02556192Y-08205680D02*
X-02549344Y-08194528D01*
X-02549344Y-08194528D02*
X-02538868Y-08166094D01*
X-02538868Y-08166094D02*
X-02533978Y-08128429D01*
X-02533978Y-08128429D02*
X-02531344Y-07880309D01*
X-02250965Y-07879773D02*
X-02250965Y-08235709D01*
X-02250965Y-08235709D02*
X-02014099Y-08235709D01*
X-01729491Y-07879773D02*
X-01729491Y-08235709D01*
X-01729491Y-07879773D02*
X-01497496Y-07879773D01*
X-01729491Y-08057740D02*
X-01567094Y-08057740D01*
X-01729491Y-08235709D02*
X-01497496Y-08235709D01*
D53*
X025240884Y027112212D02*
X025240884Y026780005D01*
X025814506Y027066477D02*
X025777548Y027113936D01*
X025777548Y027113936D02*
X025689945Y027118672D01*
X025689945Y027118672D02*
X025640843Y027084493D01*
X025640843Y027084493D02*
X025620797Y027021786D01*
X025620797Y027021786D02*
X025629099Y026990824D01*
X025629099Y026990824D02*
X025660164Y026964080D01*
X025660164Y026964080D02*
X025783265Y026942514D01*
X025783265Y026942514D02*
X025824678Y026917022D01*
X025824678Y026917022D02*
X025840045Y026872931D01*
X025840045Y026872931D02*
X025819803Y026803973D01*
X025819803Y026803973D02*
X025757975Y026774005D01*
X025757975Y026774005D02*
X025678482Y026776236D01*
X025678482Y026776236D02*
X025635006Y026800551D01*
X025635006Y026800551D02*
X025610597Y026857736D01*
X026203028Y026774005D02*
X026159485Y026787552D01*
X026159485Y026787552D02*
X026119682Y026828769D01*
X026119682Y026828769D02*
X026090248Y026968667D01*
X026090248Y026968667D02*
X026118285Y027073375D01*
X026118285Y027073375D02*
X026152684Y027103198D01*
X026152684Y027103198D02*
X026212244Y027118672D01*
X026212244Y027118672D02*
X026268319Y027100097D01*
X026268319Y027100097D02*
X026301150Y027066149D01*
X026301150Y027066149D02*
X026329267Y026938606D01*
X026329267Y026938606D02*
X026315274Y026858084D01*
X026315274Y026858084D02*
X026290338Y026811548D01*
X026290338Y026811548D02*
X026246046Y026779849D01*
X026246046Y026779849D02*
X026203028Y026774005D01*
X026583656Y027112212D02*
X026583656Y026780005D01*
X026583656Y026780005D02*
X026804731Y026780005D01*
X027039980Y026780005D02*
X027173315Y027112212D01*
X027173315Y027112212D02*
X027317280Y026780005D01*
X027107226Y026909585D02*
X027243566Y026909585D01*
X027526809Y027112212D02*
X027799324Y027112212D01*
X027667113Y027112212D02*
X027667113Y026780005D01*
X028039238Y027112212D02*
X028039238Y026780005D01*
X028039238Y027112212D02*
X028255767Y027112212D01*
X028039238Y026946109D02*
X028190808Y026946109D01*
X028039238Y026780005D02*
X028255767Y026780005D01*
X028516019Y026780005D02*
X028519637Y027105312D01*
X028519637Y027105312D02*
X028568333Y027112212D01*
X028568333Y027112212D02*
X028605637Y027111410D01*
X028605637Y027111410D02*
X028666231Y027095022D01*
X028666231Y027095022D02*
X028711042Y027059631D01*
X028711042Y027059631D02*
X028736663Y027011978D01*
X028736663Y027011978D02*
X028746876Y026962568D01*
X028746876Y026962568D02*
X028747860Y026925367D01*
X028747860Y026925367D02*
X028743188Y026893483D01*
X028743188Y026893483D02*
X028733632Y026866515D01*
X028733632Y026866515D02*
X028702951Y026825709D01*
X028702951Y026825709D02*
X028661991Y026799732D01*
X028661991Y026799732D02*
X028594786Y026781528D01*
X028594786Y026781528D02*
X028516019Y026780005D01*
X029561318Y027044859D02*
X029640306Y027112212D01*
X029640306Y027112212D02*
X029640306Y026780007D01*
X029974472Y027112212D02*
X029974472Y026943797D01*
X029974472Y026943797D02*
X030068897Y026965945D01*
X030068897Y026965945D02*
X030136317Y026957614D01*
X030136317Y026957614D02*
X030163147Y026942577D01*
X030163147Y026942577D02*
X030181779Y026921242D01*
X030181779Y026921242D02*
X030196025Y026863094D01*
X030196025Y026863094D02*
X030189288Y026832886D01*
X030189288Y026832886D02*
X030171610Y026809112D01*
X030171610Y026809112D02*
X030136871Y026787031D01*
X030136871Y026787031D02*
X030096724Y026775415D01*
X030096724Y026775415D02*
X030058971Y026773552D01*
X030058971Y026773552D02*
X030027178Y026779614D01*
X030027178Y026779614D02*
X030001479Y026791501D01*
X030001479Y026791501D02*
X029974472Y026815953D01*
X029974472Y027112212D02*
X030196025Y027112212D01*
X030435820Y027112212D02*
X030579023Y026780005D01*
X030579023Y026780005D02*
X030703550Y027112212D01*
D54*
X029462706Y024096182D02*
X029463150Y023937473D01*
X029463150Y023937473D02*
X029466213Y023894299D01*
X029466213Y023894299D02*
X029474047Y023862319D01*
X029474047Y023862319D02*
X029489067Y023837994D01*
X029489067Y023837994D02*
X029508717Y023821910D01*
X029508717Y023821910D02*
X029538072Y023810294D01*
X029538072Y023810294D02*
X029575112Y023805902D01*
X029575112Y023805902D02*
X029601109Y023810299D01*
X029601109Y023810299D02*
X029622431Y023821884D01*
X029622431Y023821884D02*
X029635191Y023835456D01*
X029635191Y023835456D02*
X029640670Y023844378D01*
X029640670Y023844378D02*
X029649050Y023867125D01*
X029649050Y023867125D02*
X029652963Y023897257D01*
X029652963Y023897257D02*
X029655070Y024095753D01*
X029894060Y024045310D02*
X029900449Y024066237D01*
X029900449Y024066237D02*
X029919328Y024085754D01*
X029919328Y024085754D02*
X029950268Y024098990D01*
X029950268Y024098990D02*
X029970126Y024101719D01*
X029970126Y024101719D02*
X030004482Y024099204D01*
X030004482Y024099204D02*
X030030255Y024087904D01*
X030030255Y024087904D02*
X030044348Y024070574D01*
X030044348Y024070574D02*
X030049411Y024050437D01*
X030049411Y024050437D02*
X030049075Y024037041D01*
X030049075Y024037041D02*
X030043025Y024014619D01*
X030043025Y024014619D02*
X030016768Y023971025D01*
X030016768Y023971025D02*
X029950644Y023888096D01*
X029950644Y023888096D02*
X029881116Y023811821D01*
X029881116Y023811821D02*
X030067122Y023811821D01*
X030804581Y024096182D02*
X030804581Y023811433D01*
X031123016Y023811433D02*
X031123016Y024090808D01*
X031123016Y024090808D02*
X031180338Y024096182D01*
X031180338Y024096182D02*
X031231618Y024092823D01*
X031231618Y024092823D02*
X031264962Y024083784D01*
X031264962Y024083784D02*
X031279871Y024076479D01*
X031279871Y024076479D02*
X031303649Y024055050D01*
X031303649Y024055050D02*
X031314216Y024032034D01*
X031314216Y024032034D02*
X031316610Y023998387D01*
X031316610Y023998387D02*
X031307134Y023977234D01*
X031307134Y023977234D02*
X031292346Y023965542D01*
X031292346Y023965542D02*
X031268764Y023956167D01*
X031268764Y023956167D02*
X031234659Y023949444D01*
X031234659Y023949444D02*
X031188307Y023945707D01*
X031188307Y023945707D02*
X031127976Y023945292D01*
X031688603Y024101719D02*
X031652015Y024090278D01*
X031652015Y024090278D02*
X031618119Y024078918D01*
X031618119Y024078918D02*
X031589332Y024058724D01*
X031589332Y024058724D02*
X031566952Y024037393D01*
X031566952Y024037393D02*
X031549865Y023999823D01*
X031549865Y023999823D02*
X031538117Y023964608D01*
X031538117Y023964608D02*
X031536864Y023928299D01*
X031536864Y023928299D02*
X031535982Y023892118D01*
X031535982Y023892118D02*
X031545221Y023865191D01*
X031545221Y023865191D02*
X031554043Y023848362D01*
X031554043Y023848362D02*
X031574938Y023826485D01*
X031574938Y023826485D02*
X031597225Y023811759D01*
X031597225Y023811759D02*
X031631585Y023806290D01*
X031631585Y023806290D02*
X031670123Y023808393D01*
X031670123Y023808393D02*
X031700305Y023821857D01*
X031700305Y023821857D02*
X031721663Y023839948D01*
X031721663Y023839948D02*
X031733271Y023864771D01*
X031733271Y023864771D02*
X031734199Y023885807D01*
X031734199Y023885807D02*
X031727699Y023908105D01*
X031727699Y023908105D02*
X031717948Y023927038D01*
X031717948Y023927038D02*
X031703090Y023942604D01*
X031703090Y023942604D02*
X031682660Y023952281D01*
X031682660Y023952281D02*
X031654336Y023958592D01*
X031654336Y023958592D02*
X031627406Y023959853D01*
X031627406Y023959853D02*
X031599082Y023955646D01*
X031599082Y023955646D02*
X031569830Y023940501D01*
X031569830Y023940501D02*
X031554508Y023924934D01*
X031554508Y023924934D02*
X031535888Y023905917D01*
X031955323Y024096182D02*
X031955323Y023951826D01*
X031955323Y023951826D02*
X032036259Y023970810D01*
X032036259Y023970810D02*
X032094048Y023963669D01*
X032094048Y023963669D02*
X032117045Y023950781D01*
X032117045Y023950781D02*
X032133016Y023932493D01*
X032133016Y023932493D02*
X032145226Y023882652D01*
X032145226Y023882652D02*
X032139452Y023856759D01*
X032139452Y023856759D02*
X032124299Y023836381D01*
X032124299Y023836381D02*
X032094523Y023817455D01*
X032094523Y023817455D02*
X032060111Y023807498D01*
X032060111Y023807498D02*
X032027752Y023805902D01*
X032027752Y023805902D02*
X032000501Y023811098D01*
X032000501Y023811098D02*
X031978473Y023821287D01*
X031978473Y023821287D02*
X031955323Y023842245D01*
X031955323Y024096182D02*
X032145226Y024096182D01*
X032385447Y024045310D02*
X032391836Y024066237D01*
X032391836Y024066237D02*
X032410715Y024085754D01*
X032410715Y024085754D02*
X032441655Y024098990D01*
X032441655Y024098990D02*
X032461513Y024101719D01*
X032461513Y024101719D02*
X032495869Y024099204D01*
X032495869Y024099204D02*
X032521642Y024087904D01*
X032521642Y024087904D02*
X032535736Y024070574D01*
X032535736Y024070574D02*
X032540798Y024050437D01*
X032540798Y024050437D02*
X032540462Y024037041D01*
X032540462Y024037041D02*
X032534412Y024014619D01*
X032534412Y024014619D02*
X032508155Y023971025D01*
X032508155Y023971025D02*
X032442031Y023888096D01*
X032442031Y023888096D02*
X032372503Y023811821D01*
X032372503Y023811821D02*
X032558509Y023811821D01*
X032880737Y024101719D02*
X032841075Y024090978D01*
X032841075Y024090978D02*
X032805564Y024058251D01*
X032805564Y024058251D02*
X032786194Y024010735D01*
X032786194Y024010735D02*
X032781582Y023940267D01*
X032781582Y023940267D02*
X032792651Y023881186D01*
X032792651Y023881186D02*
X032821244Y023832226D01*
X032821244Y023832226D02*
X032862290Y023806290D01*
X032862290Y023806290D02*
X032899185Y023806290D01*
X032899185Y023806290D02*
X032940231Y023832226D01*
X032940231Y023832226D02*
X032968824Y023881186D01*
X032968824Y023881186D02*
X032979893Y023940267D01*
X032979893Y023940267D02*
X032975281Y024010735D01*
X032975281Y024010735D02*
X032955911Y024058251D01*
X032955911Y024058251D02*
X032920400Y024090978D01*
X032920400Y024090978D02*
X032880737Y024101719D01*
X033787644Y024056980D02*
X033755966Y024097660D01*
X033755966Y024097660D02*
X033680877Y024101719D01*
X033680877Y024101719D02*
X033638790Y024072423D01*
X033638790Y024072423D02*
X033621608Y024018674D01*
X033621608Y024018674D02*
X033628724Y023992135D01*
X033628724Y023992135D02*
X033655351Y023969211D01*
X033655351Y023969211D02*
X033760866Y023950726D01*
X033760866Y023950726D02*
X033796363Y023928876D01*
X033796363Y023928876D02*
X033809535Y023891084D01*
X033809535Y023891084D02*
X033792184Y023831977D01*
X033792184Y023831977D02*
X033739189Y023806290D01*
X033739189Y023806290D02*
X033671052Y023808202D01*
X033671052Y023808202D02*
X033633787Y023829044D01*
X033633787Y023829044D02*
X033612865Y023878060D01*
X034009639Y024096182D02*
X034243223Y024096182D01*
X034129899Y024096182D02*
X034129899Y023811433D01*
X034442302Y023811433D02*
X034445403Y024090267D01*
X034445403Y024090267D02*
X034487142Y024096182D01*
X034487142Y024096182D02*
X034519117Y024095494D01*
X034519117Y024095494D02*
X034571055Y024081447D01*
X034571055Y024081447D02*
X034609465Y024051112D01*
X034609465Y024051112D02*
X034631425Y024010267D01*
X034631425Y024010267D02*
X034640179Y023967915D01*
X034640179Y023967915D02*
X034641023Y023936029D01*
X034641023Y023936029D02*
X034637019Y023908700D01*
X034637019Y023908700D02*
X034628827Y023885584D01*
X034628827Y023885584D02*
X034602529Y023850608D01*
X034602529Y023850608D02*
X034567421Y023828342D01*
X034567421Y023828342D02*
X034509816Y023812738D01*
X034509816Y023812738D02*
X034442302Y023811433D01*
X035271944Y023775195D02*
X035472305Y024096182D01*
X036104662Y023811433D02*
X036104662Y024096182D01*
X036104662Y024096182D02*
X036300512Y023811433D01*
X036300512Y023811433D02*
X036296669Y024096182D01*
X036612050Y023806290D02*
X036574728Y023817902D01*
X036574728Y023817902D02*
X036540611Y023853231D01*
X036540611Y023853231D02*
X036515381Y023973143D01*
X036515381Y023973143D02*
X036539413Y024062893D01*
X036539413Y024062893D02*
X036568898Y024088455D01*
X036568898Y024088455D02*
X036619950Y024101719D01*
X036619950Y024101719D02*
X036668014Y024085798D01*
X036668014Y024085798D02*
X036696155Y024056699D01*
X036696155Y024056699D02*
X036720255Y023947377D01*
X036720255Y023947377D02*
X036708261Y023878358D01*
X036708261Y023878358D02*
X036686887Y023838470D01*
X036686887Y023838470D02*
X036648922Y023811299D01*
X036648922Y023811299D02*
X036612050Y023806290D01*
X037351484Y023811433D02*
X037351484Y024090808D01*
X037351484Y024090808D02*
X037408806Y024096182D01*
X037408806Y024096182D02*
X037460086Y024092823D01*
X037460086Y024092823D02*
X037493430Y024083784D01*
X037493430Y024083784D02*
X037508339Y024076479D01*
X037508339Y024076479D02*
X037532117Y024055050D01*
X037532117Y024055050D02*
X037542684Y024032034D01*
X037542684Y024032034D02*
X037545078Y023998387D01*
X037545078Y023998387D02*
X037535602Y023977234D01*
X037535602Y023977234D02*
X037520814Y023965542D01*
X037520814Y023965542D02*
X037497232Y023956167D01*
X037497232Y023956167D02*
X037463127Y023949444D01*
X037463127Y023949444D02*
X037416775Y023945707D01*
X037416775Y023945707D02*
X037356444Y023945292D01*
X037766715Y023811433D02*
X037766715Y024090808D01*
X037766715Y024090808D02*
X037824038Y024096182D01*
X037824038Y024096182D02*
X037875317Y024092823D01*
X037875317Y024092823D02*
X037908661Y024083784D01*
X037908661Y024083784D02*
X037923570Y024076479D01*
X037923570Y024076479D02*
X037947348Y024055050D01*
X037947348Y024055050D02*
X037957915Y024032034D01*
X037957915Y024032034D02*
X037960309Y023998387D01*
X037960309Y023998387D02*
X037950833Y023977234D01*
X037950833Y023977234D02*
X037936045Y023965542D01*
X037936045Y023965542D02*
X037912463Y023956167D01*
X037912463Y023956167D02*
X037878358Y023949444D01*
X037878358Y023949444D02*
X037832007Y023945707D01*
X037832007Y023945707D02*
X037771675Y023945292D01*
X038355188Y024056980D02*
X038323509Y024097660D01*
X038323509Y024097660D02*
X038248421Y024101719D01*
X038248421Y024101719D02*
X038206334Y024072423D01*
X038206334Y024072423D02*
X038189151Y024018674D01*
X038189151Y024018674D02*
X038196268Y023992135D01*
X038196268Y023992135D02*
X038222895Y023969211D01*
X038222895Y023969211D02*
X038328410Y023950726D01*
X038328410Y023950726D02*
X038363906Y023928876D01*
X038363906Y023928876D02*
X038377078Y023891084D01*
X038377078Y023891084D02*
X038359727Y023831977D01*
X038359727Y023831977D02*
X038306733Y023806290D01*
X038306733Y023806290D02*
X038238595Y023808202D01*
X038238595Y023808202D02*
X038201331Y023829044D01*
X038201331Y023829044D02*
X038180408Y023878060D01*
D52*
X042923578Y-09879773D02*
X042924133Y-10078159D01*
X042924133Y-10078159D02*
X042927961Y-10132127D01*
X042927961Y-10132127D02*
X042937754Y-10172102D01*
X042937754Y-10172102D02*
X042956529Y-10202508D01*
X042956529Y-10202508D02*
X042981091Y-10222612D01*
X042981091Y-10222612D02*
X043017785Y-10237132D01*
X043017785Y-10237132D02*
X043064085Y-10242623D01*
X043064085Y-10242623D02*
X043096581Y-10237126D01*
X043096581Y-10237126D02*
X043123234Y-10222645D01*
X043123234Y-10222645D02*
X043139184Y-10205680D01*
X043139184Y-10205680D02*
X043146032Y-10194528D01*
X043146032Y-10194528D02*
X043156508Y-10166094D01*
X043156508Y-10166094D02*
X043161398Y-10128429D01*
X043161398Y-10128429D02*
X043164032Y-09880309D01*
X043658399Y-09928775D02*
X043618802Y-09877925D01*
X043618802Y-09877925D02*
X043524941Y-09872852D01*
X043524941Y-09872852D02*
X043472332Y-09909472D01*
X043472332Y-09909472D02*
X043450854Y-09976658D01*
X043450854Y-09976658D02*
X043459749Y-10009832D01*
X043459749Y-10009832D02*
X043493033Y-10038486D01*
X043493033Y-10038486D02*
X043624927Y-10061592D01*
X043624927Y-10061592D02*
X043669298Y-10088905D01*
X043669298Y-10088905D02*
X043685762Y-10136145D01*
X043685762Y-10136145D02*
X043664074Y-10210029D01*
X043664074Y-10210029D02*
X043597831Y-10242137D01*
X043597831Y-10242137D02*
X043512659Y-10239747D01*
X043512659Y-10239747D02*
X043466078Y-10213695D01*
X043466078Y-10213695D02*
X043439925Y-10152425D01*
X043957426Y-10235709D02*
X043957426Y-09883950D01*
X043957426Y-09883950D02*
X044033756Y-09879773D01*
X044033756Y-09879773D02*
X044103649Y-09892057D01*
X044103649Y-09892057D02*
X044150738Y-09933283D01*
X044150738Y-09933283D02*
X044143412Y-09993558D01*
X044143412Y-09993558D02*
X044088004Y-10025812D01*
X044088004Y-10025812D02*
X043968326Y-10039654D01*
X043968326Y-10039654D02*
X044084692Y-10046953D01*
X044084692Y-10046953D02*
X044170004Y-10077414D01*
X044170004Y-10077414D02*
X044206340Y-10124245D01*
X044206340Y-10124245D02*
X044203354Y-10184811D01*
X044203354Y-10184811D02*
X044186999Y-10211566D01*
X044186999Y-10211566D02*
X044146208Y-10233309D01*
X044146208Y-10233309D02*
X043957426Y-10235709D01*
X044534143Y-10097668D02*
X044667701Y-10097668D01*
X045239675Y-09957920D02*
X045223595Y-09918728D01*
X045223595Y-09918728D02*
X045194097Y-09890979D01*
X045194097Y-09890979D02*
X045138233Y-09872852D01*
X045138233Y-09872852D02*
X045096951Y-09878387D01*
X045096951Y-09878387D02*
X045060573Y-09896968D01*
X045060573Y-09896968D02*
X045025050Y-09939852D01*
X045025050Y-09939852D02*
X045000246Y-10052418D01*
X045000246Y-10052418D02*
X045019710Y-10165577D01*
X045019710Y-10165577D02*
X045048747Y-10211146D01*
X045048747Y-10211146D02*
X045078936Y-10232471D01*
X045078936Y-10232471D02*
X045137747Y-10242137D01*
X045137747Y-10242137D02*
X045189000Y-10229781D01*
X045189000Y-10229781D02*
X045226950Y-10193724D01*
X045226950Y-10193724D02*
X045239675Y-10142834D01*
X046037042Y-10235709D02*
X046037042Y-09886490D01*
X046037042Y-09886490D02*
X046108696Y-09879773D01*
X046108696Y-09879773D02*
X046172795Y-09883971D01*
X046172795Y-09883971D02*
X046214476Y-09895270D01*
X046214476Y-09895270D02*
X046233112Y-09904402D01*
X046233112Y-09904402D02*
X046262834Y-09931188D01*
X046262834Y-09931188D02*
X046276043Y-09959957D01*
X046276043Y-09959957D02*
X046279035Y-10002016D01*
X046279035Y-10002016D02*
X046267190Y-10028458D01*
X046267190Y-10028458D02*
X046248705Y-10043073D01*
X046248705Y-10043073D02*
X046219228Y-10054792D01*
X046219228Y-10054792D02*
X046176597Y-10063195D01*
X046176597Y-10063195D02*
X046118657Y-10067866D01*
X046118657Y-10067866D02*
X046043243Y-10068385D01*
X046552877Y-10235709D02*
X046556754Y-09887166D01*
X046556754Y-09887166D02*
X046608928Y-09879773D01*
X046608928Y-09879773D02*
X046648897Y-09880632D01*
X046648897Y-09880632D02*
X046713819Y-09898191D01*
X046713819Y-09898191D02*
X046761831Y-09936110D01*
X046761831Y-09936110D02*
X046789282Y-09987166D01*
X046789282Y-09987166D02*
X046800224Y-10040106D01*
X046800224Y-10040106D02*
X046801278Y-10079964D01*
X046801278Y-10079964D02*
X046796273Y-10114125D01*
X046796273Y-10114125D02*
X046786034Y-10143020D01*
X046786034Y-10143020D02*
X046753162Y-10186740D01*
X046753162Y-10186740D02*
X046709276Y-10214573D01*
X046709276Y-10214573D02*
X046637271Y-10234078D01*
X046637271Y-10234078D02*
X046552877Y-10235709D01*
X047707946Y-10242137D02*
X047661293Y-10227623D01*
X047661293Y-10227623D02*
X047618647Y-10183462D01*
X047618647Y-10183462D02*
X047587110Y-10033571D01*
X047587110Y-10033571D02*
X047617150Y-09921384D01*
X047617150Y-09921384D02*
X047654006Y-09889431D01*
X047654006Y-09889431D02*
X047717820Y-09872852D01*
X047717820Y-09872852D02*
X047777900Y-09892753D01*
X047777900Y-09892753D02*
X047813077Y-09929127D01*
X047813077Y-09929127D02*
X047843202Y-10065779D01*
X047843202Y-10065779D02*
X047828209Y-10152053D01*
X047828209Y-10152053D02*
X047801492Y-10201913D01*
X047801492Y-10201913D02*
X047754036Y-10235876D01*
X047754036Y-10235876D02*
X047707946Y-10242137D01*
X048113968Y-09879773D02*
X048114523Y-10078159D01*
X048114523Y-10078159D02*
X048118351Y-10132127D01*
X048118351Y-10132127D02*
X048128144Y-10172102D01*
X048128144Y-10172102D02*
X048146919Y-10202508D01*
X048146919Y-10202508D02*
X048171481Y-10222612D01*
X048171481Y-10222612D02*
X048208175Y-10237132D01*
X048208175Y-10237132D02*
X048254475Y-10242623D01*
X048254475Y-10242623D02*
X048286971Y-10237126D01*
X048286971Y-10237126D02*
X048313624Y-10222645D01*
X048313624Y-10222645D02*
X048329574Y-10205680D01*
X048329574Y-10205680D02*
X048336422Y-10194528D01*
X048336422Y-10194528D02*
X048346898Y-10166094D01*
X048346898Y-10166094D02*
X048351788Y-10128429D01*
X048351788Y-10128429D02*
X048354422Y-09880309D01*
X048607243Y-09879773D02*
X048899224Y-09879773D01*
X048757569Y-09879773D02*
X048757569Y-10235709D01*
D51*
X037085931Y-27895803D02*
X037085931Y-28052189D01*
X037085931Y-28052189D02*
X037173611Y-28031622D01*
X037173611Y-28031622D02*
X037236216Y-28039358D01*
X037236216Y-28039358D02*
X037261129Y-28053321D01*
X037261129Y-28053321D02*
X037278431Y-28073133D01*
X037278431Y-28073133D02*
X037291659Y-28127127D01*
X037291659Y-28127127D02*
X037285403Y-28155177D01*
X037285403Y-28155177D02*
X037268988Y-28177253D01*
X037268988Y-28177253D02*
X037236730Y-28197757D01*
X037236730Y-28197757D02*
X037199451Y-28208543D01*
X037199451Y-28208543D02*
X037164395Y-28210273D01*
X037164395Y-28210273D02*
X037134873Y-28204644D01*
X037134873Y-28204644D02*
X037111009Y-28193606D01*
X037111009Y-28193606D02*
X037085931Y-28170901D01*
X037085931Y-27895803D02*
X037291659Y-27895803D01*
X037514326Y-27895803D02*
X037647300Y-28204281D01*
X037647300Y-28204281D02*
X037762932Y-27895803D01*
X037979934Y-28243538D02*
X038196992Y-27895803D01*
X038438460Y-27929508D02*
X038455545Y-27916113D01*
X038455545Y-27916113D02*
X038482773Y-27901761D01*
X038482773Y-27901761D02*
X038517475Y-27889805D01*
X038517475Y-27889805D02*
X038560185Y-27892193D01*
X038560185Y-27892193D02*
X038597557Y-27904153D01*
X038597557Y-27904153D02*
X038624252Y-27925681D01*
X038624252Y-27925681D02*
X038640269Y-27951993D01*
X038640269Y-27951993D02*
X038634930Y-27980698D01*
X038634930Y-27980698D02*
X038613574Y-28002226D01*
X038613574Y-28002226D02*
X038576202Y-28018970D01*
X038576202Y-28018970D02*
X038533491Y-28028538D01*
X038533491Y-28028538D02*
X038496120Y-28033322D01*
X038496120Y-28033322D02*
X038533491Y-28038106D01*
X038533491Y-28038106D02*
X038576202Y-28050066D01*
X038576202Y-28050066D02*
X038613574Y-28069202D01*
X038613574Y-28069202D02*
X038637599Y-28095515D01*
X038637599Y-28095515D02*
X038642938Y-28124218D01*
X038642938Y-28124218D02*
X038632260Y-28155315D01*
X038632260Y-28155315D02*
X038608235Y-28181626D01*
X038608235Y-28181626D02*
X038570863Y-28203155D01*
X038570863Y-28203155D02*
X038542567Y-28209852D01*
X038542567Y-28209852D02*
X038496653Y-28208896D01*
X038496653Y-28208896D02*
X038459282Y-28203155D01*
X038459282Y-28203155D02*
X038433656Y-28195500D01*
X038859384Y-28204281D02*
X038983195Y-27895803D01*
X038983195Y-27895803D02*
X039116877Y-28204281D01*
X038921826Y-28083957D02*
X039048428Y-28083957D01*
X040433182Y-27971704D02*
X040424082Y-27930754D01*
X040424082Y-27930754D02*
X040405882Y-27908004D01*
X040405882Y-27908004D02*
X040378582Y-27894354D01*
X040378582Y-27894354D02*
X040342182Y-27889805D01*
X040342182Y-27889805D02*
X040305782Y-27894354D01*
X040305782Y-27894354D02*
X040273932Y-27908004D01*
X040273932Y-27908004D02*
X040251182Y-27930754D01*
X040251182Y-27930754D02*
X040242082Y-27962604D01*
X040242082Y-27962604D02*
X040251182Y-27994454D01*
X040251182Y-27994454D02*
X040273932Y-28017204D01*
X040273932Y-28017204D02*
X040305782Y-28030854D01*
X040305782Y-28030854D02*
X040342182Y-28035404D01*
X040342182Y-28035404D02*
X040378582Y-28026304D01*
X040378582Y-28026304D02*
X040405882Y-28008104D01*
X040405882Y-28008104D02*
X040424082Y-27989904D01*
X040424082Y-27989904D02*
X040433182Y-27971704D01*
X040432727Y-27972159D02*
X040398147Y-28062249D01*
X040398147Y-28062249D02*
X040374032Y-28126404D01*
X040374032Y-28126404D02*
X040354012Y-28172814D01*
X040354012Y-28172814D02*
X040337632Y-28208304D01*
X040663162Y-27895803D02*
X040796136Y-28204281D01*
X040796136Y-28204281D02*
X040911769Y-27895803D01*
X041128770Y-28243538D02*
X041345828Y-27895803D01*
X041600402Y-27950915D02*
X041607324Y-27928243D01*
X041607324Y-27928243D02*
X041627776Y-27907099D01*
X041627776Y-27907099D02*
X041661294Y-27892761D01*
X041661294Y-27892761D02*
X041682807Y-27889805D01*
X041682807Y-27889805D02*
X041720026Y-27892529D01*
X041720026Y-27892529D02*
X041747947Y-27904771D01*
X041747947Y-27904771D02*
X041763215Y-27923545D01*
X041763215Y-27923545D02*
X041768699Y-27945360D01*
X041768699Y-27945360D02*
X041768335Y-27959872D01*
X041768335Y-27959872D02*
X041761781Y-27984162D01*
X041761781Y-27984162D02*
X041733336Y-28031390D01*
X041733336Y-28031390D02*
X041661702Y-28121229D01*
X041661702Y-28121229D02*
X041586380Y-28203860D01*
X041586380Y-28203860D02*
X041787886Y-28203860D01*
X042008220Y-28204281D02*
X042132031Y-27895803D01*
X042132031Y-27895803D02*
X042265714Y-28204281D01*
X042070663Y-28083957D02*
X042197264Y-28083957D01*
X043449795Y-27958345D02*
X043523141Y-27895803D01*
X043523141Y-27895803D02*
X043523141Y-28204280D01*
X043849571Y-27950915D02*
X043856493Y-27928243D01*
X043856493Y-27928243D02*
X043876945Y-27907099D01*
X043876945Y-27907099D02*
X043910463Y-27892761D01*
X043910463Y-27892761D02*
X043931976Y-27889805D01*
X043931976Y-27889805D02*
X043969195Y-27892529D01*
X043969195Y-27892529D02*
X043997116Y-27904771D01*
X043997116Y-27904771D02*
X044012384Y-27923545D01*
X044012384Y-27923545D02*
X044017868Y-27945360D01*
X044017868Y-27945360D02*
X044017504Y-27959872D01*
X044017504Y-27959872D02*
X044010950Y-27984162D01*
X044010950Y-27984162D02*
X043982505Y-28031390D01*
X043982505Y-28031390D02*
X043910871Y-28121229D01*
X043910871Y-28121229D02*
X043835549Y-28203860D01*
X043835549Y-28203860D02*
X044037055Y-28203860D01*
X044261833Y-27895803D02*
X044394807Y-28204281D01*
X044394807Y-28204281D02*
X044510439Y-27895803D01*
X044727441Y-28243538D02*
X044944499Y-27895803D01*
X045249130Y-27958345D02*
X045322476Y-27895803D01*
X045322476Y-27895803D02*
X045322476Y-28204280D01*
X045763630Y-28159739D02*
X045707644Y-28159739D01*
X046082607Y-27895803D02*
X046082607Y-28052189D01*
X046082607Y-28052189D02*
X046170287Y-28031622D01*
X046170287Y-28031622D02*
X046232892Y-28039358D01*
X046232892Y-28039358D02*
X046257805Y-28053321D01*
X046257805Y-28053321D02*
X046275107Y-28073133D01*
X046275107Y-28073133D02*
X046288335Y-28127127D01*
X046288335Y-28127127D02*
X046282079Y-28155177D01*
X046282079Y-28155177D02*
X046265664Y-28177253D01*
X046265664Y-28177253D02*
X046233406Y-28197757D01*
X046233406Y-28197757D02*
X046196127Y-28208543D01*
X046196127Y-28208543D02*
X046161071Y-28210273D01*
X046161071Y-28210273D02*
X046131549Y-28204644D01*
X046131549Y-28204644D02*
X046107685Y-28193606D01*
X046107685Y-28193606D02*
X046082607Y-28170901D01*
X046082607Y-27895803D02*
X046288335Y-27895803D01*
X046506558Y-28204281D02*
X046630369Y-27895803D01*
X046630369Y-27895803D02*
X046764052Y-28204281D01*
X046569001Y-28083957D02*
X046695602Y-28083957D01*
M02*